<svg xmlns="http://www.w3.org/2000/svg" viewBox="0 0 1197.6945 1139.08">
  <g data-name="jack" class="jack">
    <path d="M227.31 1.3629c-.6757.5195-1.3476 1.043-2.0234 1.5625a9.9852 9.9852 0 0 0-2.57 4.414 62.1577 62.1577 0 0 0-2.9961 9.9454 127.394 127.394 0 0 0-1.7227 12.6445c-.93 8.7969-1.082 17.6953-1.2734 26.5312-.3828 17.8711.4531 35.75 1.2305 53.5977.16 3.6641.5 7.3281.7461 10.9844q.8321 12.2343 1.66 24.4687 1.3008 19.2482 2.6094 38.5039c.6563 9.6524 1.6172 19.2969 2.4258 28.9375 1.8828 22.418 3.6562 44.8438 5.7031 67.2461q4.0546 44.42 8.1094 88.836c.5547 6.0859.9375 12.1875 1.375 18.2851q1.793 24.9786 3.582 49.957 1.4063 19.5586 2.8086 39.1211c.2749 3.84.4345 7.6893.5782 11.538q-1.2166 1.1726-2.4337 2.3449-14.2676 13.7518-28.5351 27.5c-.793.7656-1.5235 1.6093-2.2774 2.41q-3.2519 3.4278-6.5 6.8633-8.8827 9.3926-17.7656 18.7773-6.955 7.3536-13.914 14.7032c-1.4844 1.57-2.9141 3.1718-4.3477 4.7929q-8.9062 10.0606-17.5547 20.336c-11.18 13.2735-21.8711 26.9414-32.25 40.8477q-15.375 20.6074-29.2578 42.2539-13.9687 21.8789-26.2852 44.7422c-8.0625 14.9883-15.3906 30.3672-22.1992 45.9609-6.8789 15.7617-13.1054 31.7852-18.7929 48.0117a495.5213 495.5213 0 0 0-14.6875 49.5782 429.6508 429.6508 0 0 0-9.07 52.0546 291.7667 291.7667 0 0 0-.9882 51.4883 234.91 234.91 0 0 0 8.7109 49.2149 156.9388 156.9388 0 0 0 20.1836 43.5156 132.9023 132.9023 0 0 0 14.5469 18.1055 111.65 111.65 0 0 0 19.09 15.5195 105.5223 105.5223 0 0 0 20.3711 10.1914c7.7852 3.0156 16.043 4.4414 24.3008 5.3672a86.1081 86.1081 0 0 0 22.625-.9063c8.1484-1.2382 15.8672-4.07 23.3945-7.3359a88.4125 88.4125 0 0 0 19.41-12.1328 136.4794 136.4794 0 0 0 17.8242-17.086c10.5273-11.9765 18.5625-25.8789 25.68-40.0664a335.6041 335.6041 0 0 0 18.8515-46.7265q7.8691-24.1875 13.3008-49.0742c3.6875-16.77 6.6016-33.7188 9.2578-50.68 2.7344-17.4922 4.8828-35.0782 6.7071-52.6875.8672-8.3594 1.6289-16.7344 2.3476-25.1094.1719-2 .3438-3.9883.4414-5.9922q2.127-43.8163 4.2578-87.6367.2286-4.6524.4532-9.3047c.1211-2.4492-.0313-4.9414-.0469-7.3906q-.1466-22.7169-.293-45.43-.1522-23.4258-.3008-46.8516c-.0351-5.3164-.1171-10.6055-.34-15.918q-1.8009-43.04-3.5985-86.0746c1.2305-1.1907 2.4687-2.3735 3.7391-3.5231q16.1309-14.5664 32.2617-29.1289c2.625-2.375 5.336-4.6445 8.0235-6.9414q9.498-8.1093 18.9883-16.2148c8.9023-7.6016 18.0859-14.875 27.1718-22.2539 7.9532-6.461 16.1563-12.6172 24.0743-19.1172q5.5077-4.5234 11.0117-9.0391c1.8867-1.5468 3.8047-3.0625 5.6328-4.68 4.5555-4.0277 9.1226-8.0393 13.6413-12.1054q-1.034 3.7243-2.0671 7.4492-2.3262 8.373-4.6523 16.7539c-.3985 1.4414-.6289 2.9492-.9414 4.41q-1.2247 5.7422-2.4532 11.4765-2.42 11.3262-4.8359 22.6446c-.7656 3.5859-1.3086 7.2031-1.9024 10.82q-1.9746 12.0293-3.9492 24.0547c-.375 2.2773-.8242 4.57-1.0468 6.871q-.3516 3.58-.7032 7.1641l-1.9929 20.4273c-.23 2.34-.207 4.7305-.3086 7.0781q-.2343 5.4433-.4648 10.8906a100.0271 100.0271 0 0 0 .9766 19.1524c.25 1.664.5547 3.2734.9492 4.9062a33.4823 33.4823 0 0 0 1.8945 5.07c.16.375.32.75.4805 1.1211q1.0605 1.4708 2.25 2.836a7.6129 7.6129 0 0 0 3.1758 2.0547 8.1011 8.1011 0 0 0 3.7851 1.2226 17.76 17.76 0 0 0 6.7656-.0429 18.5692 18.5692 0 0 0 5.211-1.8555 40.3426 40.3426 0 0 0 8.8633-6.9219c5.7187-5.668 10.1992-12.3594 14.3086-19.2344a191.1321 191.1321 0 0 0 19.7582-45.2301 185.3263 185.3263 0 0 0 4.8945-23.875c.9938-6.7177 1.6468-13.4641 2.0773-20.2314q.95 1.3128 1.9383 2.6025a117.7643 117.7643 0 0 0 7.7617 9.1953 78.7559 78.7559 0 0 0 10.4727 9.0351 76.7263 76.7263 0 0 0 9.6641 6.1758 60.156 60.156 0 0 0 11.0586 4.375 74.2277 74.2277 0 0 0 11.91 2.1524 53.223 53.223 0 0 0 13.0235-.1172 77.8 77.8 0 0 0 11.9492-2.3985 87.8128 87.8128 0 0 0 11.3515-4.2617c7.9961-3.5156 15.09-8.3555 21.9453-13.7226 3.0976-2.4258 6.1289-4.9141 9.0586-7.5469 2.957-2.66 5.7265-5.52 8.4609-8.4063a254.8465 254.8465 0 0 0 17-20.0312 238.0363 238.0363 0 0 0 13.6172-19.59 264.41 264.41 0 0 0 12.8047-23.5039c4.89-10 9.103-20.345 13.339-30.6361-.1906 1.2356-.3666 2.475-.4679 3.7025q-.3808 4.5938-.7617 9.1914-.4687 5.6954-.9453 11.3985a146.4266 146.4266 0 0 0-.2813 16.82 102.897 102.897 0 0 0 1.2617 12.6719c.2656 1.707.668 3.3867 1.0977 5.0586a37.2154 37.2154 0 0 0 2.2148 5.5586 26.8255 26.8255 0 0 0 2.9922 4.7656 46.8015 46.8015 0 0 0 4.0547 4.8515 33.277 33.277 0 0 0 4.8242 3.9375 46.7765 46.7765 0 0 0 6.461 3.8672c7.125 3.5274 15.1054 4.4532 22.9609 3.8867a61.7285 61.7285 0 0 0 11.6484-2.0507 70.8829 70.8829 0 0 0 13.0977-5.4336 120.2333 120.2333 0 0 0 19.668-13.0469 163.4316 163.4316 0 0 0 17.6445-16.6914 213.2182 213.2182 0 0 0 15.7539-19.1524 255.8065 255.8065 0 0 0 14.2695-21.32 213.5575 213.5575 0 0 0 20.4883-46.539 232.1064 232.1064 0 0 0 5.9063-24.2774c1.7851-9.0429 3.1679-18.1523 4.3242-27.2929q.3168-2.5014.6085-5.0072.391 2.829.7977 5.6556a322.3486 322.3486 0 0 0 10.9883 50.2187 169.3544 169.3544 0 0 0 8.8359 22.2071 85.9493 85.9493 0 0 0 14.8907 21.707 80.9276 80.9276 0 0 0 18.4687 14.9414 43.6274 43.6274 0 0 0 5.6328 2.4844c.5547.1484 1.1133.2969 1.668.4453q2.209.293 4.4141.5938a38.04 38.04 0 0 0 13.4765-1.9336c7.7149-2.5391 14.586-7.5743 20.4063-13.1172a84.01 84.01 0 0 0 7.68-8.8008 123.2 123.2 0 0 0 8.2578-11.6914c3.6031-5.8115 6.842-11.8284 9.9686-17.9065.4152.994.8464 1.978 1.2853 2.95a38.9747 38.9747 0 0 0 2.34 4.4531l.9844 1.3008a28.4543 28.4543 0 0 0 2.6484 3.2343 38.9775 38.9775 0 0 0 8.57 6.793 36.58 36.58 0 0 0 5.3125 2.3711 27.15 27.15 0 0 0 5.1758 1.332c7.6016 1.4961 15.4571 1.0625 23.09.1016a79.92 79.92 0 0 0 11.957-2.4805c3.6992-1.0508 7.3242-2.3711 10.957-3.6172 5.91-2.0195 11.6211-4.6836 17.3164-7.23 2.7149-1.211 5.4922-2.336 8.16-3.6524a73.0547 73.0547 0 0 0 10.7187-5.9258c.6758-.5195 1.3477-1.0429 2.0235-1.5625a10.0037 10.0037 0 0 0-4.4141-16.7148c-2.375-.6523-5.6289-.4883-7.7031 1.0078a67.1047 67.1047 0 0 1-11.9805 6.5c-4.8607 2.17-9.7151 4.3585-14.6064 6.4581-3.9761 1.5945-8.0365 2.9527-12.1084 4.3036a86.43 86.43 0 0 1-12.1395 3.13 81.2686 81.2686 0 0 1-15.7463.4 34.4366 34.4366 0 0 1-5.1655-1.308c-.9186-.5037-1.7919-1.0372-2.6576-1.6191a40.9738 40.9738 0 0 1-3.1015-2.9809 29.9583 29.9583 0 0 1-2.0093-3.6267c-.9122-2.3207-1.734-4.6573-2.43-7.0655a63.5337 63.5337 0 0 1-1.6807-7.7793q-.5559-4.9827-.8779-9.99a9.9536 9.9536 0 0 0-1.3633-5.0469 10 10 0 0 0-13.6836-3.59 10.5752 10.5752 0 0 0-4.5937 5.9765q-.2133.6033-.4389 1.201c-2.1832 4.7912-4.4867 9.512-6.8658 14.2092-2.1485 4.2344-4.2852 8.4726-6.4688 12.6875-1.7929 3.4609-3.7695 6.8242-5.7226 10.1992a119.5688 119.5688 0 0 1-7.14 11.0114 81.871 81.871 0 0 1-11.16 11.931 54.9261 54.9261 0 0 1-7.7336 4.69 35.9545 35.9545 0 0 1-4.6725 1.3388c-1.0294.0732-2.0458.1012-3.0905.0824-.5644-.1271-1.1138-.2776-1.6685-.4566a57.9608 57.9608 0 0 1-6.3011-3.9148 92.25 92.25 0 0 1-13.0211-13.0267 102.5352 102.5352 0 0 1-10.201-18.6148 214.1667 214.1667 0 0 1-9.48-31.04c-2.75-11.77-4.7446-23.7349-6.3908-35.7075-1.1429-8.7716-2.172-17.5548-3.0193-26.3628q-1.1953-12.5038-2.3985-25.0117c-1.0234-10.6563-1.8711-21.3086-2.7109-31.9805-.8477-10.707-1.7305-21.4141-2.4649-32.1328l-2.8359-41.25q-.0336-.49-.0682-.981-.0787-3.0144-.1584-6.0307c-.0546-2.1094-.0234-4.2422-.1679-6.3477q-.668-9.8321-1.34-19.66c-.3554-5.1641-.9414-10.3243-1.4609-15.4727-.5234-5.2227-1.0625-10.4414-1.668-15.6562-.1172-.8868-.2383-1.7735-.3554-2.66a9.98 9.98 0 0 0-2.5743-4.41c-1.7187-1.7226-4.5586-3.1718-7.07-2.93-.1679.0156-.3359.0312-.5078.0468-.8867.1211-1.77.2383-2.6562.3594a10.0009 10.0009 0 0 0-4.4141 2.57 9.6485 9.6485 0 0 0-2.93 7.07q2.9667 32.1551 5.3356 64.3524.1625 6.2487.3246 12.4992c.1133 4.4726-.0078 8.957-.043 13.43q-.0879 11.4784-.1719 22.9531c-.0312 3.8633-.2148 7.7227-.3359 11.582q-.4043 12.5566-.8047 25.1133c-.3047 9.6524-.9023 19.2852-1.4453 28.9258l-1.1484 20.4375c-.1954 3.457-.52 6.9023-.8165 10.3516-.6715 7.7871-1.45 15.5571-2.4487 23.3066-1.5119 10.6066-3.4492 21.1625-5.9067 31.5918a206.2024 206.2024 0 0 1-9.8779 30.4419 210.45 210.45 0 0 1-11.8643 23.3628 250.2819 250.2819 0 0 1-16.1112 23.7681 180.2312 180.2312 0 0 1-28.7489 29.5885 107.1521 107.1521 0 0 1-19.2243 11.5547 55.4813 55.4813 0 0 1-10.0866 2.7949 52.2677 52.2677 0 0 1-8.7816.0807 36.4141 36.4141 0 0 1-4.7651-1.2164 42.79 42.79 0 0 1-5.5953-3.23 33.3618 33.3618 0 0 1-3.2548-3.2253 34.1523 34.1523 0 0 1-2.179-3.6561 53.1927 53.1927 0 0 1-1.4888-6.6068c-1.4485-14.601.3019-29.2073 1.5171-43.7638q1.7139-12.0825 3.4333-24.17c.3321-2.34.59-4.7032 1.0274-7.0274q1.207-6.4218 2.4179-12.8437c3.3086-17.5782 6.6016-35.16 10.5586-52.6055a10.342 10.342 0 0 0-1.0117-7.707 9.9972 9.9972 0 0 0-13.68-3.586c-.6757.52-1.3515 1.043-2.0234 1.5625a10.029 10.029 0 0 0-2.5742 4.4141c-3.4063 8.664-6.711 17.3711-10.1328 26.0312q-4.5937 11.6133-9.2188 23.211-9.5868 23.9847-19.4212 47.8527c-2.2608 5.2685-4.5053 10.5453-6.8561 15.7723-2.543 5.6484-5.3633 11.164-8.2813 16.6289a229.2709 229.2709 0 0 1-19.8637 30.9043c-4.6888 5.93-9.6351 11.6363-14.7808 17.1738a149.0531 149.0531 0 0 1-16.6057 15.2293 97.1492 97.1492 0 0 1-17.9126 10.9146 78.68 78.68 0 0 1-15.4839 4.48 59.6136 59.6136 0 0 1-11.8077-.0741 62.1707 62.1707 0 0 1-10.726-2.8228 67.478 67.478 0 0 1-10.9947-6.6231c-1.9874-1.6034-3.9014-3.2723-5.7506-5.0452a79.82 79.82 0 0 1-6.9041-7.7357 115.88 115.88 0 0 1-7.6076-11.5651 136.383 136.383 0 0 1-6.8687-14.0278c-1.6784-4.2041-3.1756-8.4744-4.5421-12.7883q-.4984-5.6873-1.1361-11.3636c-.3476-3.1133-.8555-6.2226-1.2891-9.3281l-1.6406-11.7656c-.7578-5.4336-1.789-10.8516-2.7773-16.2461-.5547-3.0117-1.0742-6.0274-1.668-9.0313l-1.1016-5.5429c-.2031-1.02-.4062-2.043-.6171-3.0625a24.35 24.35 0 0 0-2.5079-6.07 10.0038 10.0038 0 0 0-13.6835-3.586c-.6758.5195-1.3477 1.043-2.0235 1.5625a9.9773 9.9773 0 0 0-2.4017 3.8679 8.6861 8.6861 0 0 0-.93 1.1477 21.5549 21.5549 0 0 0-2.9844 4.711c-.4438.9455-.8452 1.9183-1.2288 2.8973-2.4141 2.58-4.9591 5.0347-7.5368 7.4621-4.07 3.832-8.1992 7.6015-12.3242 11.3789-8.59 7.8554-17.1719 15.7421-26.1719 23.1289-4.57 3.75-9.0781 7.582-13.7149 11.2461q-8.6659 6.85-17.3281 13.6992c-9.1836 7.2578-18.207 14.7226-27.2929 22.1054-3.75 3.0469-7.3672 6.2774-11.043 9.4141q-8.73 7.4591-17.4649 14.918c-2.6445 2.2578-5.1953 4.625-7.7773 6.9531q-9.2753 8.3833-18.5581 16.7629-1.4514-20.23-2.9028-40.4543-1.7052-23.7833-3.41-47.5469c-.3984-5.5781-.82-11.1367-1.3281-16.707q-4.0724-44.5782-8.1406-89.1484c-2.1368-23.4219-3.9649-46.8829-5.93-70.32-.6289-7.457-1.3672-14.9257-1.875-22.3945q-1.2187-18.0058-2.4414-36.0234-1.2481-18.44-2.5-36.8828c-.2579-3.8086-.3477-7.6289-.5079-11.4375-.3593-8.5782-.6445-17.1524-.789-25.7383-.1289-7.8164-.0508-15.6328.18-23.4492.2347-7.8567.576-15.6955 1.4754-23.5048.2807-1.9278.5982-3.8468.9972-5.757a52.3133 52.3133 0 0 1 2.6407-8.2421c.93-2.375.2265-5.59-1.0079-7.7071a10.0779 10.0779 0 0 0-5.9765-4.5937 9.9576 9.9576 0 0 0-2.6417-.3551 10.0612 10.0612 0 0 0-5.0654 1.3629zM415.8136 446.066c.4531-2.7461 1.0507-5.4531 1.6328-8.1719q2.3905-11.1914 4.7812-22.3789 1.377-6.4452 2.75-12.8867c.293-1.3711.7578-2.7266 1.1328-4.0781q1.4766-5.3087 2.9492-10.625 2.6771-9.6394 5.35-19.2749.7467 3.7611 1.5677 7.5054c1.6854 7.71 3.78 15.3284 6.0793 22.8753.5372 7.0079.8884 14.0256.9988 21.0739a267.6009 267.6009 0 0 1-1.886 36.5323c-.991 6.8456-2.2623 13.6279-3.9069 20.3505a161.6794 161.6794 0 0 1-7.47 22.4253c-2.2943 5.2987-4.8043 10.48-7.5844 15.5473a153.3969 153.3969 0 0 1-10.0489 16.1838 69.127 69.127 0 0 1-4.7449 5.2984 151.1317 151.1317 0 0 1-.116-18.0252l.3867-9.07c.0625-1.4375.0586-2.8907.1993-4.3243q1.28-13.1382 2.5664-26.2761 2.6835-16.3373 5.3633-32.6809zM180.4702 585.6793c4.43-5.0938 8.9219-10.0742 13.5547-14.9727l32.7887-34.6523c6.5312-6.8984 13.4921-13.3633 20.332-19.9531l1.4959-1.4425q1.4808 35.4429 2.965 70.8878c.2422 5.8086.1914 11.6211.2305 17.4336q.1583 24.7559.32 49.5078.1289 20.7246.2656 41.4454c.0391 6.0937-.3828 12.1718-.6758 18.2578q-2.0448 42.0468-4.09 84.0859c-.1406 2.875-.4766 5.7539-.7266 8.6211q-.82 9.4218-1.7734 18.832-1.68 16.7639-3.8843 33.4721c-3.3326 24.3719-7.46 48.6947-12.9243 72.6842-2.7109 11.91-5.9922 23.6758-9.5391 35.3633-3.5626 11.7353-7.5839 23.3271-12.2711 34.6594-3.4373 7.9488-7.2374 15.7268-11.3109 23.3679a182.0769 182.0769 0 0 1-14.5535 23.1726 133.1338 133.1338 0 0 1-20.5889 20.8295c-2.6566 1.9769-5.3793 3.8281-8.2131 5.5565a73.5059 73.5059 0 0 1-8.3651 4.2961 92.0306 92.0306 0 0 1-18.9566 5.2852 83.4706 83.4706 0 0 1-18.4785-.1246 92.663 92.663 0 0 1-19.2544-5.2641 105.139 105.139 0 0 1-19.5676-11.625 109.6948 109.6948 0 0 1-16.6256-16.8938 146.5031 146.5031 0 0 1-16.5695-28.6043 204.4043 204.4043 0 0 1-12.1145-46.8206c-2.9375-23.5262-2.3988-47.4659.5722-70.965 6.1871-44.0888 19.7625-86.7756 36.9278-127.7567a648.744 648.744 0 0 1 39.635-77.8475 749.96 749.96 0 0 1 49.4529-72.1686c10.2566-13.2081 20.9608-26.0519 31.9416-38.6674zm221.8265-45.5281q-.12.0176-.2406.032l.2406-.032zM241.099 858.5187c-.0311.2343-.0623.4694-.0936.7036q.0465-.3518.0936-.7036z"/>
  </g>
  <g data-name="xi" class="xi">
    <path d="M1072.021 943.9021c-7.2773 9.0117-15.0742 17.6094-23.0273 26.0235-3.7734 3.9922-7.7891 7.77-11.6953 11.6289q-6.17 6.1-12.3438 12.1836c-5.914 5.84-11.7031 11.8086-17.539 17.7265-2.59 2.6289-5.02 5.4336-7.461 8.1992-3.914 4.4375-7.6484 9.02-11.2734 13.6993a165.6281 165.6281 0 0 0-11.1484 15.8672 70.8551 70.8551 0 0 0-4.7266 9.4882 42.5962 42.5962 0 0 0-2.2383 8.5235 10.5378 10.5378 0 0 0 1.0078 7.7031 9.9962 9.9962 0 0 0 13.68 3.59 9.7181 9.7181 0 0 0 4.5977-5.9765 49.558 49.558 0 0 1 1.7982-7.38c3.1409-6.7 7.4853-12.824 11.9658-18.6921a270.7854 270.7854 0 0 1 20.5954-23.5686c4.2421-4.3047 8.43-8.668 12.73-12.91q12.3282-12.1641 24.6485-24.34c4.2031-4.1563 8.16-8.586 12.0664-13.0235 4.2343-4.8086 8.48-9.6172 12.5039-14.6015.5234-.6719 1.0429-1.3477 1.5664-2.0235a10.0039 10.0039 0 0 0-8.6367-15.0469c-2.4024 0-5.4961.9766-7.07 2.93z"/><path d="M969.908 944.946a10.0576 10.0576 0 0 0-4.5976 5.9765 10.27 10.27 0 0 0 1.0078 7.707c1.9922 3.6915 3.9453 7.4024 6.0468 11.0352q2.7246 4.6992 5.4493 9.4063c2.3046 3.98 4.4609 8.0781 7.0664 11.875q6.0761 8.8593 12.1562 17.7187c3.0352 4.4219 6.4727 8.57 9.7617 12.8008q3.8554 4.9512 7.711 9.91c2.6015 3.34 5.4258 6.5274 8.1289 9.7813q7.2124 8.6784 14.3058 17.4587c3.4506 4.6365 6.865 9.2779 10.1668 14.0257a109.3933 109.3933 0 0 1 9.4493 15.289 9.69 9.69 0 0 0 5.9765 4.5938 10.0083 10.0083 0 0 0 12.3047-6.9844q.1758-1.33.3555-2.6562a9.9093 9.9093 0 0 0-1.3672-5.0469c-2.4024-5.0664-5.6406-9.68-8.7695-14.3125-3.2461-4.8047-6.6993-9.4375-10.1641-14.086-3.8633-5.1836-8.02-10.1406-12.1016-15.1523-3.4062-4.1875-6.8867-8.32-10.3359-12.4727-5.7721-6.9452-11.2557-14.1189-16.7872-21.2556q-3.8973-5.6652-7.7792-11.3381-2.5078-3.6562-5.0195-7.3125c-.668-.9727-1.418-1.9258-2.0118-2.9453q-3.873-6.6973-7.75-13.3906-4.8984-8.4552-9.5234-17.0352a9.7655 9.7655 0 0 0-8.6669-4.9153 9.9278 9.9278 0 0 0-5.0128 1.3255z"/><path d="M1143.3017 940.7643c-2.2227 7.375-4.2969 14.7656-6.332 22.1914-1.25 4.582-2.7032 9.1484-3.6915 13.7968q-2.2206 10.4357-4.4414 20.875c-.9687 4.5469-1.6093 9.1368-2.3242 13.7344-.8945 5.7774-1.8828 11.5313-2.43 17.3516-.5234 5.5781-1.1367 11.1562-1.5039 16.7461-.3945 6.0429-.7773 12.0781-1.0429 18.1289-.2305 5.1953-.3164 10.3945-.41 15.59q-.0762 3.92-.0664 7.84a10 10 0 0 0 20 0c-.0156-5.1914.1016-10.3789.2266-15.57.1171-4.9375.2382-9.8906.5625-14.82.3086-4.7695.5156-9.5547.9609-14.3125.5034-5.3532 1.0171-10.71 1.5085-16.0672q1.3071-8.355 2.5892-16.714c.6953-4.4922 1.7109-8.91 2.6562-13.3555q1.207-5.6835 2.418-11.3672c.3086-1.457.5586-2.9453.9492-4.3867q2.6484-9.6914 5.3047-19.3789c1.3711-5.0156 2.8515-9.9844 4.3515-14.9648a10.08 10.08 0 0 0-6.9843-12.3008 9.8423 9.8423 0 0 0-2.6169-.3562 10.2235 10.2235 0 0 0-9.6839 7.3406z"/><path d="M1184.1677 894.7052q-1.9629 0-3.9258.0078-4.2187.0119-8.4414.0391-8.2617.0528-16.5235.168c-10.25.1289-20.4922.4375-30.7383.7226-11.4179.3242-22.8281.4414-34.2539.4414h-33.0312q-33.2109 0-66.4219.0235c-20.9609.02-41.9219.1015-62.875.6914a10.1191 10.1191 0 0 0-10 10c0 5.3359 4.5508 10.1523 10 10 22.2735-.625 44.5508-.668 66.8281-.6953q33.8438-.0352 67.68-.02h32.9883c10.2031 0 20.3906-.18 30.5859-.4843 10.32-.3047 20.6368-.57 30.9571-.7032q7.6172-.0937 15.2344-.1445c4.8681-.0312 9.7905-.2572 14.6511.03q.4072.055.8137.1106a9.9469 9.9469 0 0 0 5.0469-1.3672 9.9963 9.9963 0 0 0 3.59-13.68q-.7851-1.0137-1.5625-2.0235a9.9927 9.9927 0 0 0-4.414-2.5742 45.003 45.003 0 0 0-6.1409-.5431zm.0742 19.7227l.7968.1055.4874.066q-.642-.0862-1.2842-.1715z"/><path d="M1119.4946 1117.6078c-22.1016.0547-44.2071.125-66.3008.6563-11.375.2695-22.7383.5117-34.1133.59-10.1523.0742-20.3008.0508-30.4531.0078-20.59-.0859-41.1641-.23-61.7383-1.0937-5.4492-.2266-10 4.7226-10 10a10.0416 10.0416 0 0 0 2.93 7.0742 10.2606 10.2606 0 0 0 7.07 2.9258c22.2344.9336 44.48 1.07 66.73 1.1093q18.4043.0352 36.8046-.1015c10.0313-.07 20.0665-.4649 30.0977-.6445 21.8633-.3868 43.7422-.6368 65.6133-.5313q15.07.07 30.125.5273c4.6562.1446 9.3125.3165 13.9726.4532 4.9961.1484 10.0157.09 15 .48a9.6945 9.6945 0 0 0 7.07-2.93 9.9967 9.9967 0 0 0 0-14.1407 10.509 10.509 0 0 0-7.07-2.93c-5.7578-.4531-11.5664-.3789-17.34-.5507-5.57-.1641-11.1406-.3672-16.7109-.543-9.1558-.2879-18.3091-.3644-27.4668-.3644q-2.11 0-4.2207.005z"/>
  </g>
</svg>
