<svg xmlns="http://www.w3.org/2000/svg" viewBox="0 0 908.8515 970.2117" id="palm">
  <g data-name="bottom" class="bottom">
    <path d="M302.2624 900.4138a10.0065 10.0065 0 0 0-6.9844 12.3008 10.5429 10.5429 0 0 0 4.5938 5.9765c6.5117 4.5157 13.0859 8.9063 19.6836 13.2852 7.832 5.1953 15.73 10.2305 24.0117 14.6953a192.9592 192.9592 0 0 0 44.8633 17.6055 211.3436 211.3436 0 0 0 25.6757 4.3867 236.4582 236.4582 0 0 0 24.0937 1.5156 248.7064 248.7064 0 0 0 40.3555-2.7773c6.3164-.9258 12.5547-2.2539 18.75-3.7891 6.3555-1.5742 12.7149-3.2656 18.8945-5.4453a117.1851 117.1851 0 0 0 18.25-8.3672c3.5938-2.0195 7.0938-4.2226 10.629-6.3437 4.1132-2.461 8.2343-4.93 12.16-7.6914a10.6015 10.6015 0 0 0 4.5938-5.9766 10.0067 10.0067 0 0 0-6.9844-12.3008 9.7263 9.7263 0 0 0-7.707 1.0078c-3.5352 2.4883-7.2305 4.7461-10.9415 6.9649-2.59 1.5547-5.1835 3.0976-7.7695 4.66a126.8919 126.8919 0 0 1-14.3713 7.544 165.8426 165.8426 0 0 1-20.2263 6.1943 206.1038 206.1038 0 0 1-22.3094 4.5 240.3622 240.3622 0 0 1-59.8211.0049 183.0686 183.0686 0 0 1-21.5843-4.3056 171.0828 171.0828 0 0 1-20.7442-7.0445 233.3065 233.3065 0 0 1-36.01-19.8422c-7.84-5.1992-15.668-10.3906-23.3946-15.75a8.79 8.79 0 0 0-4.9372-1.3693 10.56 10.56 0 0 0-2.77.3615z"/>
    <path d="M428.965 509.899a162.6924 162.6924 0 0 0-25.0274 4.8906 157.4154 157.4154 0 0 0-23.3867 8.9258 150.4557 150.4557 0 0 0-19.9726 11.3047 173.0587 173.0587 0 0 0-19.293 14.9063 114.7334 114.7334 0 0 0-16.3047 18.3867 99.1644 99.1644 0 0 0-11.3906 21.8437c-6.0313 15.2539-8.7735 31.6211-10.543 47.8477-.7344 6.7226-1.0469 13.5-1.5195 20.2461-.332 4.7422-.543 9.4844-.7656 14.2305-.5391 11.2812-.8985 22.5546-1.2461 33.84-.1875 6.0039-.0782 12.0312-.1172 18.0391-.0313 4.9921.0117 9.9882.0351 14.9843.0508 11.0118.1875 22.0274.3125 33.0391.0664 5.8359.2969 11.6758.4453 17.5117.1055 4.1992.1915 8.3945.41 12.59q.5508 10.7754 1.1094 21.5468c.2461 4.8047.66 9.6016 1.0117 14.3985q.7207 9.82 1.6523 19.6054c.3477 3.66.6329 7.3321 1.0743 10.98 1.2265 10.18 2.0507 20.9766 7.5 29.9375a10.00165998 10.00165998 0 1 0 17.2698-10.0939q-.813-1.3372-1.5165-2.732a64.3236 64.3236 0 0 1-2.69-12.567c-1.5507-11.9877-2.4772-24.0619-3.36-36.1151-.3438-4.6563-.7305-9.3125-.9727-13.9805q-.5567-10.8164-1.1133-21.6406c-.2226-4.293-.289-8.59-.3984-12.8867-.1445-5.5508-.3633-11.1094-.4258-16.66-.125-11.3125-.2617-22.6211-.3125-33.9336-.0234-4.9218-.0547-9.8437-.0234-14.7656.0351-5.8047-.0664-11.625.1133-17.43.3554-11.5547.7383-23.0976 1.2851-34.6484.2461-5.1328.5117-10.2539.8711-15.3789q.4219-6.0058.8438-12.0078c.2928-4.1485.7386-8.2747 1.2681-12.3959a160.4261 160.4261 0 0 1 9.5531-37.4015 91.9168 91.9168 0 0 1 10.1942-17.6466 117.7039 117.7039 0 0 1 18.852-18.4431 159.2583 159.2583 0 0 1 32.449-19.1273 144.3756 144.3756 0 0 1 33.67-9.1387c4.58-.5709 9.1743-.957 13.7906-1.0774a103.3281 103.3281 0 0 1 14.9555.7837 95.6175 95.6175 0 0 1 46.232 19.3025 117.3087 117.3087 0 0 1 18.7017 18.7884 176.1611 176.1611 0 0 1 20.9571 36.4042c8.47 20.5492 13.3959 42.4448 16.4482 64.4138a428.8465 428.8465 0 0 1 3.2446 46.7332 450.3315 450.3315 0 0 1-1.7383 49.2383c-.7461 8.2031-1.7773 16.375-2.8516 24.5351-.1735 1.3074-.4348 2.63-.5461 3.9516q-.2217 1.42-.45 2.8336-.82 5.2148-1.6484 10.4258c-3.6094 22.789-7.48 45.5351-11.32 68.289-1.4609 8.6563-3.0039 17.3008-4.4141 25.9649-.7617 4.6992-1.5547 9.3945-2.2773 14.1015-.3789 2.4531-.7891 4.8985-1.1289 7.3594-.5977 4.3594-1.4844 8.7969-1.3711 13.207a10 10 0 0 0 20 0 37.031 37.031 0 0 1 .1992-4.51c3.0314-21.6249 6.9824-43.1216 10.6133-64.654q2.7773-16.4415 5.5586-32.8907c1.875-11.1132 3.539-22.2656 5.3008-33.3984q.2685-1.6884.5085-3.3817a9.9814 9.9814 0 0 0 .31-2.2286c.318-2.3411.6153-4.6849.9234-7.0264 1.07-8.1641 2.0469-16.34 2.7735-24.543a452.2952 452.2952 0 0 0 1.52-49.2422 437.5517 437.5517 0 0 0-3.91-50.0273 296.7011 296.7011 0 0 0-10.168-46.961 224.4688 224.4688 0 0 0-8.875-23.6093 176.9422 176.9422 0 0 0-10.59-20.6211c-7.9882-13.2852-17.7187-25.7266-29.6445-35.6914a115.11 115.11 0 0 0-42.1328-22.8047 121.9225 121.9225 0 0 0-24.7969-4.4258c-2.6665-.2291-5.3366-.3325-8.0052-.3326a130.7614 130.7614 0 0 0-15.71 1.0318z"/>
    <path d="M296.5676 797.9464a10.042 10.042 0 0 0-2.93 7.0742c.1211.8828.2382 1.77.3593 2.6563a9.9861 9.9861 0 0 0 2.57 4.414c.9415 1.168 1.9493 2.2813 2.9844 3.3633a27.7927 27.7927 0 0 0 5.1446 3.9687 62.1178 62.1178 0 0 0 11.6015 5.3321 138.1688 138.1688 0 0 0 22.2578 5.82c6.9453 1.3633 13.8985 2.6094 20.8711 3.8164q17.1036 2.9591 34.211 5.9062 17.5664 3.0294 35.1367 6.0157c4.3867.75 8.7812 1.3867 13.1836 2.0351q5.707.8379 11.414 1.6836c2.2071.3242 4.4219.711 6.6407.9024q10.1073.8613 20.207 1.7226c5.3008.4531 10.6484.5156 15.9609.7461 10.7539.4649 21.5274.57 32.2891.73 7.0391.1015 14.082.2226 21.1211.2187a10 10 0 0 0 0-20c-10.9688.0078-21.9531-.1562-32.918-.3945-5.3359-.1172-10.6875-.1289-16.02-.3594q-9.3516-.4042-18.6992-.8086c-3.4258-.1484-6.8516-.57-10.2657-.8593l-11.831-1.01c-9.6919-1.4249-19.39-2.8021-29.0479-4.4507q-17.871-3.0468-35.7343-6.125-13.4707-2.3143-26.9336-4.6523-7.4708-1.2891-14.9453-2.586c-5.2618-.91-10.52-2.0039-15.7383-3.1289a111.2437 111.2437 0 0 1-17.6875-5.2226 39.6116 39.6116 0 0 1-5.6222-3.0182 36.7377 36.7377 0 0 1-3.44-3.79c-1.57-1.9531-4.668-2.9258-7.07-2.9258a10.0523 10.0523 0 0 0-7.07 2.9258z"/>
    <path d="M325.8505 690.3827a10.0778 10.0778 0 0 0 3.59 13.6836c7.0977 3.8945 14.2227 7.7226 21.4453 11.3945 7.6172 3.8711 15.3829 7.3789 23.2969 10.5937 8.8125 3.5821 17.7695 6.7539 26.8438 9.6055q9.8085 3.0762 19.6172 6.16c5.6093 1.7617 11.3906 3.1093 17.1171 4.4414 8.2852 1.9258 16.6524 3.375 25.0821 4.4961a153.4631 153.4631 0 0 0 16.3359 1.2734 94.3614 94.3614 0 0 0 18.4531-1.625c11.8047-2.0625 22.0508-8.43 31.3125-15.75 4.3789-3.4609 8.6211-7.1094 12.9141-10.6758a55.3594 55.3594 0 0 0 10.84-11.2422 9.7936 9.7936 0 0 0 1.0118-7.707 10.0083 10.0083 0 0 0-12.3047-6.9844 10.4652 10.4652 0 0 0-5.9766 4.5938l-.015.0232a71.5913 71.5913 0 0 1-7.8014 7.2658c-4.2358 3.509-8.4153 7.1126-12.7335 10.5242a78.0059 78.0059 0 0 1-13.4158 8.1812 56.5224 56.5224 0 0 1-11.2987 2.8318 113.5041 113.5041 0 0 1-26.7689-.6406 287.4813 287.4813 0 0 1-34.162-7.3653c-4.293-1.1719-8.5195-2.5742-12.7656-3.9063q-7.6758-2.414-15.3594-4.8242c-2.8164-.8867-5.59-1.914-8.3672-2.9179-5.2537-1.8921-10.47-3.8866-15.63-6.0212-12.9026-5.5483-25.2781-12.2456-37.5772-18.9945a10.5106 10.5106 0 0 0-5.0555-1.3 9.9018 9.9018 0 0 0-8.6281 4.8863z"/>
    <path d="M523.313 588.527c-6.4648 2.289-13.0312 4.2734-19.5742 6.32-9.558 2.99-19.1425 6.0883-29.0676 7.5914a223.5227 223.5227 0 0 1-27.03 1.44 219.5508 219.5508 0 0 1-28.0429-2.0266c-4.5432-.6606-9.0534-1.5519-13.57-2.364q-4.5177-.8086-9.0274-1.6172c-1.3008-.2344-2.6484-.3906-3.9336-.7109-10.9336-2.7266-21.8711-5.3946-32.7226-8.43a10.00223964 10.00223964 0 1 0-5.3164 19.2851c7.5312 2.1055 15.082 4.0313 22.6718 5.9219 4.418 1.1016 8.7969 2.2891 13.2735 3.09q10.3534 1.8573 20.6992 3.7148c5.8828 1.0547 11.8945 1.6641 17.84 2.2461a202.1783 202.1783 0 0 0 23.8789.8281c11.8438-.2461 23.84-1.0586 35.3907-3.8047 5.914-1.4062 11.6875-3.2461 17.4961-5.0273 7.4765-2.293 14.9765-4.5586 22.3515-7.1719a10.5138 10.5138 0 0 0 5.9766-4.5937 10 10 0 0 0-3.59-13.6836 10.6252 10.6252 0 0 0-5.1876-1.4128 7.5563 7.5563 0 0 0-2.5155.405z"/>
    <path d="M370.866 817.8658a21.5275 21.5275 0 0 0-4.7149 2.0039 28.1044 28.1044 0 0 0-3.75 2.2227 124.5483 124.5483 0 0 0-14.5351 11.3472 52 52 0 0 0-10.3242 13.8477 60.4241 60.4241 0 0 0-3.6368 8.7812 53.6568 53.6568 0 0 0-2.0546 10.4141 37.6744 37.6744 0 0 0 .1211 8.5469 66.9558 66.9558 0 0 0 1.707 9.8789c1.5664 6.0351 4.668 11.4258 7.7656 16.7695a10.0015 10.0015 0 0 0 17.2695-10.0937c-1.56-2.6918-3.1789-5.387-4.5332-8.1957a47.1188 47.1188 0 0 1-2.2276-8.5924 42.2655 42.2655 0 0 1-.1322-7.834 45.2618 45.2618 0 0 1 2.21-7.9265 48.9683 48.9683 0 0 1 4.5773-7.8422 55.8778 55.8778 0 0 1 7.6834-7.4071c1.5708-1.1513 3.174-2.2518 4.7586-3.3818 1.26-.8985 2.5109-1.7371 3.8172-2.4939a21.15 21.15 0 0 1 1.5032 1.5266 39.0248 39.0248 0 0 1 3.2822 5.9766 77.8319 77.8319 0 0 1 2.956 8.7641 85.2876 85.2876 0 0 1 1.93 10.0657 208.4543 208.4543 0 0 1 1.7376 27.739q-.0526 7.43-.1015 14.8633c-.0235 3.8047-.1992 7.6367-.3906 11.4375-.2082 4.1288-.4483 8.2366-.7907 12.353a51.748 51.748 0 0 1-1.8734 8.3423c-1.7149 5.18 1.9336 10.9141 6.9844 12.3047a10.0732 10.0732 0 0 0 7.707-1.0117 10.3794 10.3794 0 0 0 4.5937-5.9727 52.184 52.184 0 0 0 1.961-8.9023c.4765-3.2071.8828-6.4492 1.043-9.6914.3007-5.9532.5312-11.9024.7343-17.8594.1914-5.5313.1016-11.0781.1367-16.6094.043-6.3164-.2343-12.6914-.8007-18.98-.3789-4.25-.9922-8.4921-1.57-12.7226a92.0639 92.0639 0 0 0-2.25-11.5391 73.22 73.22 0 0 0-2.4063-7.0937 81.655 81.655 0 0 0-3.5937-8.2188 41.2951 41.2951 0 0 0-4.9532-7.1836 18.1132 18.1132 0 0 0-2.8008-2.6718 27.7461 27.7461 0 0 0-4.8593-3.2891 22.5043 22.5043 0 0 0-4.6133-1.7578 14.18 14.18 0 0 0-3.4092-.413 19.5445 19.5445 0 0 0-4.1572.4989z"/>
    <path d="M438.5122 839.4237a16.98 16.98 0 0 0-4.0117 1.5039 22.3784 22.3784 0 0 0-3.9375 2.7851 14.1708 14.1708 0 0 0-1.7617 1.7618 23.4792 23.4792 0 0 0-3.0039 4.2148 48.8583 48.8583 0 0 0-2.9766 7.5039c-.82 2.3555-1.4883 4.7695-2.1679 7.168a136.8859 136.8859 0 0 0-4.754 28.1406c-.625 9.3945-.5195 18.8477-.539 28.2578a10 10 0 0 0 20 0c.0117-5.8359.043-11.6679.1562-17.5039.1056-5.7577.3031-11.5083.972-17.2272a125.1 125.1 0 0 1 6.5935-26.231c.0225-.0435.0454-.087.0682-.13q.1537.1.3066.2027a29.8109 29.8109 0 0 1 3.1351 3.1612 72.0892 72.0892 0 0 1 4.1746 6.9315c1.3351 2.4671 2.5849 4.9567 3.7182 7.5151 2.76 6.81 5.0919 13.7606 7.4732 20.7076 1.6016 4.6758 3.125 9.375 4.6485 14.0742 2.9375 9.0664 5.9922 18.1055 8.7383 27.2305a10.00223964 10.00223964 0 1 0 19.2851-5.3164c-3.2031-10.6445-6.7812-21.1875-10.2109-31.7656-1.7774-5.4922-3.6563-10.9454-5.5274-16.4063-3.7812-11.0351-7.8984-22.1289-14.2656-31.9648a51.8738 51.8738 0 0 0-4.5859-5.9727 34.3374 34.3374 0 0 0-5.6211-4.8555 30.2555 30.2555 0 0 0-6.6289-3.4453 11.8066 11.8066 0 0 0-4.5451-.82 29.4734 29.4734 0 0 0-4.7323.48zm6.0821 18.7734l-.09.0381q.0451-.0193.09-.0381zm-1.03.7645c.032.0054.064.0108.096.0168l-.0993-.0135.0033-.0033z"/>
    <path d="M508.829 820.9413a18.1529 18.1529 0 0 0-3.2188.9921c-1.8593.6993-3.68 1.5274-5.4648 2.3985a50.6161 50.6161 0 0 0-8.57 5.8047 116.2129 116.2129 0 0 0-13.32 11.8476 111.9068 111.9068 0 0 0-11.9844 15.168 68.1556 68.1556 0 0 0-8.5352 17.1445 27.0684 27.0684 0 0 0-.7031 3.0938 27.744 27.744 0 0 0-.59 5.7031 16.3153 16.3153 0 0 0 1.8828 6.9414 15.73 15.73 0 0 0 1.9727 2.4531 12.7633 12.7633 0 0 0 4.996 2.918 15.231 15.231 0 0 0 12.3008-1.07 51.1288 51.1288 0 0 0 6.7188-4.3125 137.1134 137.1134 0 0 0 13.1015-11.73 9.974 9.974 0 0 0-9.8166-16.65 102.3379 102.3379 0 0 1 7.3088-8.0805 110.1509 110.1509 0 0 1 9.3242-8.1226 44.2876 44.2876 0 0 1 7.186-4.3921 22.8822 22.8822 0 0 1 2.3888-.7236c.627-.0229 1.2515-.0157 1.8792.018q.6386.1415 1.265.3272c.5229.2875 1.0279.5992 1.5223.9332a48.61 48.61 0 0 1 5.6168 6.0053 76.5658 76.5658 0 0 1 5.7982 9.6928c1.865 3.604 3.645 7.2516 5.2622 10.9715 3.4954 8.5081 6.5632 17.1921 9.6089 25.8723 1.2969 3.6953 2.6015 7.3867 3.8633 11.0937 1.25 3.6836 2.59 7.3672 3.5156 11.1485 1.293 5.2929 7.1641 8.3984 12.3008 6.9843a10.1268 10.1268 0 0 0 6.9844-12.3007c-1.25-5.1133-3.125-10.1211-4.8672-15.0821q-2.9532-8.4258-5.9688-16.832c-1.1484-3.1953-2.3008-6.3828-3.5234-9.5547q-2.297-5.9589-4.8125-11.8242c-1.543-3.59-3.3164-7.0859-5.0938-10.57a71.47 71.47 0 0 0-13.5039-18.8164 42.0642 42.0642 0 0 0-5.1875-4.1485 25.12 25.12 0 0 0-5.8164-2.7578 27.2589 27.2589 0 0 0-6.4726-1.125 14.9368 14.9368 0 0 0-1.587-.0813 33.1389 33.1389 0 0 0-5.7607.6634z"/>
    <path d="M362.0495 691.3617a26.11 26.11 0 0 0-5.34 1.9687 36.7029 36.7029 0 0 0-7.1836 4.2891 60.1553 60.1553 0 0 0-7.8008 6.84 86.65 86.65 0 0 0-11.0039 14.918 117.0356 117.0356 0 0 0-8.6406 18.1172 138.75 138.75 0 0 0-5.0039 17.2383c-1.5157 6.1367-3.07 12.2656-4.5821 18.4062a10.13 10.13 0 0 0 6.9844 12.3004c5.1445 1.4141 11-1.6953 12.3008-6.9844 1.5859-6.4492 3.2187-12.8828 4.8086-19.3281a139.5478 139.5478 0 0 1 5.6252-18.4229 99.04 99.04 0 0 1 10.8543-18.8558 54.9494 54.9494 0 0 1 7.3964-7.5729 40.1328 40.1328 0 0 1 4.2524-2.6284c.5079.5044.9942 1.03 1.4643 1.5751a32.6171 32.6171 0 0 1 2.648 4.681c.91 2.3745 1.6648 4.8006 2.3727 7.2434.8867 3.0508 1.7695 6.1016 2.5195 9.1875a181.6581 181.6581 0 0 1 3.2024 18.2241c1.1116 8.8736 1.6109 17.8259 2.1062 26.7525.2695 4.8711.5781 9.7422.75 14.6172.3633 10.1133.6211 20.2461.5 30.3672a10 10 0 1 0 20 0c.1328-11.1719-.2109-22.3438-.6093-33.5039-.211-5.8047-.6485-11.6094-.9688-17.4063-.4023-7.1719-.9453-14.375-1.8633-21.5a210.772 210.772 0 0 0-4.2773-24.668 126.2535 126.2535 0 0 0-4.664-15.2031 49.0214 49.0214 0 0 0-3.8867-8.0859 36.2259 36.2259 0 0 0-5.9766-7.23 23.4972 23.4972 0 0 0-8.6719-5.1836 11.1046 11.1046 0 0 0-3.5961-.542 19.71 19.71 0 0 0-3.7164.39zm3.9368 19.638c.0315.0045.063.0092.0945.0143l-.0976-.0133.0031-.001z"/>
    <path d="M429.565 725.2728c-4.3829 1.0547-8.086 3.98-11.0821 7.2344a35.3738 35.3738 0 0 0-4.3828 5.8554 51.8134 51.8134 0 0 0-3.1484 6.961c-3.3438 8.2226-5.0664 16.9023-6.1953 25.6758-1.0938 8.5117-1.6368 17.1015-2.2539 25.6562a9.7 9.7 0 0 0 2.9257 7.07 10.0011 10.0011 0 0 0 14.1446 0 10.4907 10.4907 0 0 0 2.93-7.07c.5852-8.11 1.1038-16.2516 2.0881-24.3286a97.7781 97.7781 0 0 1 5.5233-21.3558 29.7455 29.7455 0 0 1 2.0877-3.8289 28.8875 28.8875 0 0 1 2.0461-2.1366q.5021.1441.9984.3132a24.616 24.616 0 0 1 2.4335 1.38 26.4756 26.4756 0 0 1 2.5238 2.6429c5.2038 7.1076 9.1695 15.03 12.8108 23.0285q3.2578 7.1484 6.5156 14.3007c3.0758 6.7616 5.9255 13.6351 8.8314 20.4718 2.4284 5.8738 4.8322 11.7592 7.3639 17.5907q.7852 1.0078 1.5625 2.0235a10.0016 10.0016 0 0 0 16.7149-4.4141c.1211-.8867.2382-1.7734.3593-2.6562a9.9715 9.9715 0 0 0-1.3672-5.0508q-.4851-1.1155-.9613-2.2324c-4.4782-10.68-8.9635-21.3548-13.5543-31.9864-2.2109-5.1211-4.5664-10.1718-6.875-15.2461q-2.4785-5.4434-5.0976-10.8242a101.8422 101.8422 0 0 0-12.0977-19.0859 28.07 28.07 0 0 0-9.0234-7.207 26.4953 26.4953 0 0 0-11.8687-3.2369 16.86 16.86 0 0 0-3.9516.4556z"/>
    <path d="M504.9339 733.8336a22.51 22.51 0 0 0-3.6836 1.68 30.7849 30.7849 0 0 0-3.27 2.4687 20.9905 20.9905 0 0 0-3.3632 3.5508 42.9381 42.9381 0 0 0-4.1954 5.957 53.2668 53.2668 0 0 0-4.1679 10.7852 86.2353 86.2353 0 0 0-2.543 11.4531 106.2281 106.2281 0 0 0-1.2734 13.02c-.1172 4.1757.0156 8.3867.1836 12.5625.0625 1.4726.1679 2.9492.2461 4.4218a10.3377 10.3377 0 0 0 2.9257 7.07 10.0417 10.0417 0 0 0 7.0743 2.93c5.2343 0 10.2851-4.5507 10-10-.4406-8.3674-.7652-16.7241.19-25.0571a78.3858 78.3858 0 0 1 4.0424-15.8691 28.9481 28.9481 0 0 1 2.3544-3.9692 25.1837 25.1837 0 0 1 1.8348-1.9444q.3371.0035.6743.02a25.1764 25.1764 0 0 1 3.0715.8634 21.3107 21.3107 0 0 1 2.0316 1.1865 43.4349 43.4349 0 0 1 4.52 4.7189c1.682 1.9948 3.306 4.05 4.927 6.1 2.7936 3.7465 5.2789 7.7087 7.8035 11.6386a97.1552 97.1552 0 0 1 6.9986 12.7061c1.6045 4.0454 2.8605 8.2211 4.1811 12.3642a81.3035 81.3035 0 0 1 2.1367 8.129 9.764 9.764 0 0 0 4.5937 5.9765 10.0031 10.0031 0 0 0 13.6836-3.5859 10.4527 10.4527 0 0 0 1.0078-7.7071 82.8251 82.8251 0 0 0-2.2148-8.375q-.7149-2.2559-1.4375-4.5039c-1.3125-4.1093-2.82-8.0781-4.5195-12.0468-3.0274-7.0586-7.3516-13.4883-11.5743-19.875a119.15 119.15 0 0 0-7.3593-9.8828c-2.2383-2.7305-4.3477-5.5547-6.793-8.1094a31.3675 31.3675 0 0 0-22.0352-9.6406c-.0883-.0015-.1772-.0022-.2661-.0022a17.6794 17.6794 0 0 0-5.7846.967z"/>
    <path d="M400.5033 573.0401c-2.91.3047-5.707.875-8.1055 2.6836a28.7744 28.7744 0 0 0-4.1133 3.6641c-.9648 1.0508-1.9922 2.043-2.9687 3.082-2.3321 2.4922-4.4688 5.1758-6.5977 7.8438a165.5839 165.5839 0 0 0-12.6091 17.996 81.4855 81.4855 0 0 0-8.3711 19.43 83.0688 83.0688 0 0 0-2.9609 21.6132 10 10 0 0 0 20 0c.0491-3.0144.2546-6.0149.5979-9.0064a70.5046 70.5046 0 0 1 4.1044-14.5353 108.9774 108.9774 0 0 1 12.631-20.4027q2.6674-3.4 5.4714-6.6884c1.2227-1.43 2.5079-2.8008 3.836-4.1289q.2378-.2388.4695-.4823a36.8234 36.8234 0 0 1 1.8269 3.5678 115.5982 115.5982 0 0 1 4.5786 13.5942 137.3493 137.3493 0 0 1 3.0224 16.2976c.9917 7.5 1.8539 14.9888 2.3291 22.5462.375 5.9453.73 11.9257.8477 17.8828q.1992 10.2363.3984 20.4648l.1407 7.3711c.0351 1.8086-.0977 3.6289-.1524 5.4336q-.1816 5.9414-.3555 11.8789c-.0546 1.7578-.0507 3.5313-.18 5.2891-.8924 12.1234-1.71 24.2536-3.0221 36.3405-.0891.5794-.1874 1.157-.3061 1.7337a10.4912 10.4912 0 0 0 1.0078 7.707 10.003 10.003 0 0 0 13.6836 3.586 9.7506 9.7506 0 0 0 4.5938-5.9766 97.7564 97.7564 0 0 0 1.4062-10.5586c.23-2.4805.4844-4.9609.6875-7.4453.4649-5.707.9219-11.418 1.34-17.1289q.3222-4.3536.6406-8.7031c.1641-2.1954.1328-4.418.1992-6.6172q.1758-5.8711.3516-11.7383c.043-1.4375.125-2.8789.0976-4.3164-.32-16.3633-.4648-32.7227-1.6367-49.0547-.6054-8.3945-1.7656-16.7383-2.9336-25.07a111.5884 111.5884 0 0 0-4.9922-22.125c-.9648-2.7031-1.9179-5.4141-3.0156-8.0664-.7929-1.9141-1.5976-3.82-2.539-5.668a32.97 32.97 0 0 0-3.7344-5.5039 18.2148 18.2148 0 0 0-9.3789-6.3008 17.6464 17.6464 0 0 0-6.2891-.4883zm10.9424 55.481q.0484.3552.0967.71-.0487-.3547-.0967-.71z"/>
    <path d="M434.1835 618.9938a21.3066 21.3066 0 0 0-7.8281 4.5546 31.7057 31.7057 0 0 0-5.6563 7.0977 55.7609 55.7609 0 0 0-3.957 7.7969 181.4554 181.4554 0 0 0-7.168 18.5156 112.3852 112.3852 0 0 0-4.2265 17.0547 139.8379 139.8379 0 0 0-1.2227 19.43 10 10 0 1 0 20 0c.0562-5.0172.1221-10.0784.6642-15.0735a108.77 108.77 0 0 1 3.25-13.4422q2.2018-7.356 5.1178-14.44a66.5675 66.5675 0 0 1 5.918-11.4086q.1272-.1406.257-.2779 1.1091.6031 2.155 1.3086a44.3923 44.3923 0 0 1 5.3252 5.7467c6.4395 8.641 10.802 18.5691 15.1684 28.3647 1.3933 3.1284 2.7212 6.2883 4.065 9.439q1.3171 3.4949 2.6342 6.9868c.7656 2.0273 1.3281 4.1211 1.957 6.1914a105.6191 105.6191 0 0 1 3.2578 13.0469c.41 2.4336 2.5469 4.7773 4.5938 5.9765a10.0029 10.0029 0 0 0 13.6836-3.5859l1.0078-2.3906a10.0647 10.0647 0 0 0 0-5.3164 134.27 134.27 0 0 0-4.3125-16.5235 157.166 157.166 0 0 0-6.3633-16.3554c-4.3047-10.0078-8.5625-20.0274-14.07-29.4532a91.81 91.81 0 0 0-6.9844-9.8945q-1.5293-1.98-3.2031-3.8359a37.9073 37.9073 0 0 0-5.6055-4.9141 26.1793 26.1793 0 0 0-10.23-4.7969 19.507 19.507 0 0 0-3.8362-.4038 16.2512 16.2512 0 0 0-4.39.6031zm4.6567 19.5457l.0028.0014-.0736.031.0708-.0324zm8.741 8.2924q.1178.151.2351.3025-.1178-.1509-.2351-.3025z"/>
    <path d="M529.694 657.4296c-6.8867.539-13.7578 2.8164-18.9024 7.5547a23.7456 23.7456 0 0 0-3.4414 4.41 30.1532 30.1532 0 0 0-2.4609 5.0782 32.68 32.68 0 0 0-1.8828 7.5976c-.1211.8867-.2383 1.77-.3594 2.6563a10.0085 10.0085 0 0 0 7.3438 9.6445 10.0623 10.0623 0 0 0 7.7031-1.0078c2.0312-1.1875 4.2109-3.5508 4.5976-5.9766a39.8757 39.8757 0 0 1 1.336-6.1278c.3341-.6378.6894-1.2582 1.0762-1.8636q.12-.1244.2419-.2455c.3823-.2282.77-.4407 1.1666-.6408a29.3834 29.3834 0 0 1 3.9638-1.1 29.9912 29.9912 0 0 1 4.0575-.0362 26.1457 26.1457 0 0 1 3.8791 1.1056 27.6006 27.6006 0 0 1 3.4788 1.92c.4774.4186.9361.8537 1.3739 1.3144l.0118.02c.0954.35.1793.7045.2582 1.0751a9.8084 9.8084 0 0 0 4.5977 5.9766 9.9962 9.9962 0 0 0 13.68-3.59 10.3942 10.3942 0 0 0 1.0079-7.707c-1.4649-6.836-6.6758-12.1367-12.6329-15.461a50.7959 50.7959 0 0 0-5.2421-2.3554 29.7943 29.7943 0 0 0-3.8907-1.3594 41.302 41.302 0 0 0-6.414-.9492c-.5456-.0537-1.0944-.0752-1.6438-.0752-.9693 0-1.9408.0669-2.9031.1416z"/>
    <path d="M378.729 543.8219a41.07 41.07 0 0 0-9.2656 3.9219 32.8816 32.8816 0 0 0-7.7031 6.3554 43.9256 43.9256 0 0 0-6.0234 8.0821c-1.4727 2.5781-2.793 5.2578-4.1211 7.91a10.42 10.42 0 0 0-1.0079 7.707 10.0018 10.0018 0 0 0 12.3008 6.9844 9.78 9.78 0 0 0 5.9766-4.5976 84.35 84.35 0 0 1 5.6426-10.3534 38.7589 38.7589 0 0 1 3.9911-4.1407 26.97 26.97 0 0 1 3.271-1.8333 31.2953 31.2953 0 0 1 4.6513-1.3025 27.9818 27.9818 0 0 1 3.9987.0554 35.6252 35.6252 0 0 1 5.625 1.5373 31.357 31.357 0 0 1 4.2771 2.5468 58.7909 58.7909 0 0 1 7.7289 7.8282 108.7035 108.7035 0 0 1 6.3455 10.2754c2.3164 4.1055 4.3711 8.3125 6.3515 12.59 1.4385 3.1022 2.797 6.2412 4.1711 9.3735a89.7481 89.7481 0 0 1 3.9266 10.88c1.2461 4.7578 2.4922 9.5156 3.3008 14.3711.4062 2.43 2.5508 4.7812 4.5937 5.9765a10.0028 10.0028 0 0 0 13.6836-3.5859l1.0078-2.3906a10.0627 10.0627 0 0 0 0-5.3164c-.48-2.8789-1.1172-5.7227-1.8047-8.5586-.5625-2.32-1.09-4.6758-1.84-6.9453-.9023-2.7266-1.8281-5.3828-2.9023-8.0469-1.2813-3.1875-2.6368-6.3359-4.02-9.4805-5.1914-11.7851-10.7226-23.6445-18.9648-33.6484a59.6172 59.6172 0 0 0-7.1524-7.2383 58.672 58.672 0 0 0-5.375-4.09 35.89 35.89 0 0 0-6.6992-3.32 37.929 37.929 0 0 0-14.3272-2.8143 37.0732 37.0732 0 0 0-9.6376 1.2674z"/>
  </g>
  <g data-name="top" class="top">
    <path d="M337.133 492.0621c-16.4336 1.5234-32.2969 5.9375-47.7461 11.5977a290.0938 290.0938 0 0 0-43.6485 20.582 348.5525 348.5525 0 0 0-38.6406 25.6523 397.078 397.078 0 0 0-36.2383 31.1133 367.939 367.939 0 0 0-58.6133 73.9649A314.0943 314.0943 0 0 0 90.59 698.5934c-2.9727 7.32-5.6563 14.8125-8.0117 22.3554a66.3723 66.3723 0 0 0-2.4414 12.6641 39.8433 39.8433 0 0 0 .8906 12.5039 19.6074 19.6074 0 0 0 6.43 10.4258 31.8582 31.8582 0 0 0 11.8984 6.3984 32.4451 32.4451 0 0 0 4.8477 1 66.1075 66.1075 0 0 0 6.8476.6992 57.4577 57.4577 0 0 0 12.77-1.207c8.0351-1.4961 15.73-4.9453 23.0468-8.4805a134.935 134.935 0 0 0 19.4688-11.68 349.4176 349.4176 0 0 0 37.1406-30.7773c5.6992-5.3828 11.3672-10.7969 16.9492-16.3047l26.918-26.5547c8.668-8.5508 17.1562-17.2851 25.7344-25.9218 7.6914-7.75 15.52-15.3633 23.2929-23.0313 7.6524-7.5508 15.2383-15.1719 22.8477-22.7656 3.6289-3.6211 7.0937-7.418 10.625-11.1289q2.7129-2.8536 5.4219-5.6992c1.6406-1.7266 3.0664-3.7266 4.582-5.57q2.3555-2.871 4.7187-5.7382c1.129-1.375 2.3125-2.7383 3.3321-4.1914q3.5742-5.08 7.1484-10.1563c2.07-2.9414 4.0742-5.957 6-9a65.11 65.11 0 0 0 8.2227-19.5273 10.23 10.23 0 0 0-1.0078-7.7071 10.0671 10.0671 0 0 0-5.9766-4.5937c-5.1172-1.41-11.0313 1.6836-12.3008 6.9844a62.1266 62.1266 0 0 1-2.5121 8.0064c-2.5691 5.4865-6.1075 10.4186-9.48 15.435-2.1971 3.2723-4.5255 6.4592-6.8047 9.6753q-4.9872 6.072-9.9765 12.1411c-1.2891 1.5664-2.8281 2.98-4.2266 4.4492q-4.078 4.2832-8.1523 8.57c-7.5078 7.8906-15.3438 15.4727-23.0547 23.168-8.0039 7.9922-16.1016 15.8906-24.1524 23.832-8.2656 8.16-16.3711 16.4883-24.5546 24.7305-7.129 7.1836-14.3711 14.2539-21.5743 21.3632q-6.5976 6.51-13.1992 13.02c-3.3515 3.3047-6.8047 6.5156-10.2109 9.7617-5.7149 5.4453-11.4922 10.8281-17.5078 15.9414-3.7126 3.1571-7.5452 6.1727-11.398 9.158-4.947 3.79-9.99 7.445-15.2778 10.7522a124.932 124.932 0 0 1-16.3926 8.52 70.9334 70.9334 0 0 1-14.46 4.2885 46.281 46.281 0 0 1-8.8578.0412 32.4617 32.4617 0 0 1-5.012-1.2768 22.9108 22.9108 0 0 1-2.0358-1.1838q-.3429-.3112-.6687-.639c-.1368-.4958-.2507-.9962-.3484-1.5034a36.1427 36.1427 0 0 1 .056-6.5375c.969-5.5433 2.9066-10.8168 4.7424-16.1312 1.7995-5.1937 3.7312-10.341 5.8374-15.4179a315.6716 315.6716 0 0 1 18.7525-36.6837 357.7785 357.7785 0 0 1 23.0721-33.822 367.9441 367.9441 0 0 1 63.81-63.4731c21.4878-16.4644 44.8421-30.7977 69.7513-41.48 15.2439-6.3031 31.2072-11.4615 47.5615-13.858a114.1348 114.1348 0 0 1 26.3823-.34 68.3491 68.3491 0 0 1 14.3664 3.8518 39.5207 39.5207 0 0 1 17.6623 13.4141c1.339 1.879 2.5444 3.8418 3.7529 5.8047 1.43 2.3242 2.91 4.6133 4.3594 6.9179a10.26 10.26 0 0 0 5.9766 4.5977 10.0715 10.0715 0 0 0 7.707-1.0078c4.59-2.6875 6.4844-9.0625 3.5859-13.6836-1.9062-3.0391-3.8281-6.0664-5.7148-9.1172a71.7263 71.7263 0 0 0-7.8477-10.2969 58.1592 58.1592 0 0 0-19.0625-13.758 82.1738 82.1738 0 0 0-11.4453-4.3242 85.3059 85.3059 0 0 0-13.1914-2.3867 89.3369 89.3369 0 0 0-11.0379-.6487c-4.0327 0-8.0675.2306-12.0714.6018z"/>
    <path d="M428.4948 483.8004a10.0016 10.0016 0 0 0-6.9844 12.3008 10.6139 10.6139 0 0 0 4.5937 5.9765c5.8811 4.1292 11.725 8.2984 17.4955 12.5786 4.35 3.6691 8.6632 7.3649 12.9342 11.1285 2.8047 2.4726 5.6055 4.93 8.3125 7.5078 2.8555 2.7148 5.6758 5.4687 8.3868 8.332 2.5821 2.7277 4.9738 5.6237 7.29 8.5772a152.2921 152.2921 0 0 1 10.5265 15.7314 165.253 165.253 0 0 1 8.5764 17.2749c8.8008 21.3335 13.9956 43.9647 17.17 66.7821 4.27 33.1764 3.6561 66.7225-.6767 99.8627a296.9253 296.9253 0 0 1-6.8038 34.5061 258.9663 258.9663 0 0 1-11.24 33.256 234.5937 234.5937 0 0 1-14.2487 27.5877 281.9511 281.9511 0 0 1-17.1539 25.6563 138.4073 138.4073 0 0 1-10.5414 11.793 142 142 0 0 1-11.0684 10.1381 55.2124 55.2124 0 0 1-9.23 5.6372 46.49 46.49 0 0 1-8.7729 2.3521 41.2863 41.2863 0 0 1-7.3509.0806 26.5575 26.5575 0 0 1-3.7914-1.0452 39.6835 39.6835 0 0 1-5.7716-3.4647 32.6282 32.6282 0 0 1-3.8209-3.7765 108.6572 108.6572 0 0 1-6.2956-10.48c-2.2182-4.0118-4.1519-8.1748-5.9647-12.3826a339.8773 339.8773 0 0 1-11.6877-32.887 239.461 239.461 0 0 1-7.5534-35.6086c-2.0019-15.4844-3.1584-31.1148-3.6849-46.7117-.5507-16.4375-.2656-32.8906.0586-49.332.07-3.6172.3282-7.2383.5078-10.8516q.5625-11.2793 1.1211-22.5664.7736-15.6035 1.5469-31.2031c.168-3.3555.418-6.6758.707-10.0274 1.0018-11.65 2.1377-23.2889 3.6517-34.8812a378.6967 378.6967 0 0 1 7.2351-38.0875c1.5234-6.25 3.1914-12.4609 4.8867-18.6641 1.7774-6.5117 3.8438-12.91 5.8672-19.3476 1.6368-5.1992-1.875-10.8946-6.9844-12.3008a10.0619 10.0619 0 0 0-7.7031 1.0078 10.2793 10.2793 0 0 0-4.5977 5.9766c-1.1562 3.6758-2.3789 7.3281-3.5117 11.0078-1.2305 3.9883-2.2813 8.0351-3.3711 12.0625-2.0977 7.7578-4.0937 15.543-5.8555 23.3867a436.9121 436.9121 0 0 0-7.6875 49.5195c-.8632 8.0547-1.5781 16.1211-2.2617 24.1875-.1211 1.4453-.2109 2.8828-.2812 4.3282q-.4337 8.73-.8672 17.457-1.09 21.8906-2.1758 43.7851c-.3789 7.6524-.43 15.3125-.5195 22.9688-.1953 16.4219.0234 32.8359 1.1523 49.2266a408.2141 408.2141 0 0 0 6.0234 49.7343c3.0157 15.52 8.0118 30.543 13.5977 45.3047a219.1211 219.1211 0 0 0 9.793 22.5742c1.5937 3.1055 3.3437 6.1446 5.1328 9.1446a50.5487 50.5487 0 0 0 7.6055 10.0156 53.7082 53.7082 0 0 0 5.2422 4.2617 39.2618 39.2618 0 0 0 4.3867 2.8789 34.0513 34.0513 0 0 0 11.82 4.293 46.9108 46.9108 0 0 0 11.6485.3984 57.3344 57.3344 0 0 0 12.3828-2.5078 54.1942 54.1942 0 0 0 10.414-4.7695 81.2333 81.2333 0 0 0 10.1954-7.4414 143.6741 143.6741 0 0 0 15.4453-14.9649 182.0934 182.0934 0 0 0 14.84-19.4179c4.3555-6.3985 8.5313-12.93 12.4375-19.6133 16.25-27.7852 26.418-58.8594 31.4531-90.5742 5.1719-32.6094 6.7813-65.8907 3.7422-98.7891a356.4645 356.4645 0 0 0-7.9258-49.1758 237.9429 237.9429 0 0 0-15.9882-46.1562 149.1085 149.1085 0 0 0-11.293-19.9961 162.49 162.49 0 0 0-15.0156-19.211c-6.3828-6.9453-13.4883-13.125-20.5508-19.3476-4.1758-3.6836-8.3711-7.3985-12.832-10.7305q-6.5919-4.916-13.3086-9.6562-2.5489-1.8048-5.1016-3.6016a8.685 8.685 0 0 0-4.9246-1.3722 10.566 10.566 0 0 0-2.7824.3644z"/>
    <path d="M465.307 501.7606a10.1064 10.1064 0 0 0 3.59 13.6836c9.2695 5.4492 18.9922 10.043 28.4531 15.1328 4.668 2.5078 9.3867 4.9336 13.9922 7.5508q9.1992 5.2266 18.4023 10.457a297.1782 297.1782 0 0 1 33.3408 21.8878 244.7708 244.7708 0 0 1 24.5225 21.6982 298.9964 298.9964 0 0 1 21.8049 25.0867 369.9166 369.9166 0 0 1 29.1717 45.0265 532.511 532.511 0 0 1 24.3719 49.597c5.107 12.1908 9.7711 24.5935 13.9992 37.114 2.2226 6.582 4.207 13.2461 5.832 20 1.495 6.2238 2.5574 12.5562 3.4543 18.8908a91.97 91.97 0 0 1 .59 20.8305 53.2678 53.2678 0 0 1-2.6441 10.1345 26.944 26.944 0 0 1-1.7919 3.2241q-.17.1837-.3449.3614c-.4333.1206-.87.2235-1.3131.3126a54.7477 54.7477 0 0 1-10.4128-.1437 80.33 80.33 0 0 1-16.9149-4.8488c-12.0124-5.279-23.1212-12.5532-33.5332-20.4976-21.5474-16.919-40.2168-37.2564-57.0127-58.8334-9.2718-12.1139-17.7447-24.7738-25.819-37.7156-4.1641-6.6758-8.2187-13.414-12.2656-20.1562-1.625-2.7188-3.3164-5.4024-4.8516-8.1758q-8.9589-16.2129-17.9258-32.4258-15.9609-28.8809-32.0039-57.7148-5.49-9.85-10.98-19.6954c-1.4805-2.6562-2.8828-5.371-4.4766-7.9609-7.34-11.9219-14.625-23.8711-22.168-35.6641a10.2966 10.2966 0 0 0-5.9765-4.5937 10.0717 10.0717 0 0 0-7.7071 1.0078c-4.5586 2.668-6.5273 9.0859-3.5859 13.6836 7.57 11.8359 14.8867 23.8281 22.25 35.7969 1.6328 2.6484 3.0625 5.4336 4.5742 8.1484q5.6426 10.1192 11.2813 20.2344 16.0664 28.828 32.0078 57.7226 8.7772 15.8848 17.5586 31.7618c1.7969 3.2539 3.7969 6.3984 5.707 9.5859 4.043 6.7461 8.1211 13.4727 12.293 20.1406q6.246 9.99 12.8945 19.7266c4.7266 6.8867 9.7266 13.5625 14.84 20.1641 19.1171 24.6875 40.82 47.5078 66.164 65.871 12.7422 9.23 26.7305 17.3438 41.8906 21.82a70.1981 70.1981 0 0 0 23.375 2.8242 48.97 48.97 0 0 0 6.3477-.8086 23.1054 23.1054 0 0 0 5.6289-2.1016 17.1588 17.1588 0 0 0 4.52-3.5469 28.5081 28.5081 0 0 0 3.9883-5.3828 41.3642 41.3642 0 0 0 2.6289-5.7226c.57-1.4141 1.0664-2.8477 1.5078-4.3047a70.4169 70.4169 0 0 0 2.2461-11.9414c.918-7.5235.23-15.1953-.7656-22.668a230.0213 230.0213 0 0 0-4.4141-24.4883c-1.8867-7.6757-4.3281-15.207-6.93-22.664q-8.086-23.1738-18.07-45.625c-6.4257-14.375-13.5781-28.43-21.23-42.1914-15.34-27.5821-33.8516-53.6172-56.2383-75.9571a226.1706 226.1706 0 0 0-17.1719-15.3007c-6.3867-5.1915-12.9375-10.211-19.7461-14.84-8.1406-5.5312-16.5742-10.6406-25.1328-15.5039q-8.2617-4.6934-16.5234-9.3906c-4.57-2.5977-9.27-4.9883-13.9024-7.4766-4.4218-2.3789-8.9453-4.582-13.3945-6.914-4.8086-2.5235-9.6172-5.0547-14.2969-7.8086a9.7651 9.7651 0 0 0-4.9673-1.3422 10.1109 10.1109 0 0 0-8.7163 4.9281z"/>
    <path d="M523.0243 485.212a24.6845 24.6845 0 0 0-3.0391 2.3047 21.86 21.86 0 0 0-2.3906 3.0937 35.979 35.979 0 0 0-2.7656 5.8907 33.56 33.56 0 0 0-2.168 12.1133 59.7624 59.7624 0 0 0 1.4063 12.5195 99.1156 99.1156 0 0 0 3.207 11.6172c5.0313 15.3437 12.2774 29.7031 20.3359 43.6523 7.8672 13.625 16.2071 26.9531 25.1446 39.9063 9.25 13.4062 19.0937 26.4218 29.3125 39.1054a621.35 621.35 0 0 0 64.3672 68.4766c11.9961 10.9727 24.5273 21.3047 37.4883 31.1172a313.3541 313.3541 0 0 0 38.9179 25.59 237.1874 237.1874 0 0 0 22.6094 10.6094 188.3582 188.3582 0 0 0 22.0234 7.7227c7.5039 2.0742 15.168 3.4492 22.7891 4.9961a52.196 52.196 0 0 0 12.5156 1.3632 50.0245 50.0245 0 0 0 6.6289-.8906 33.83 33.83 0 0 0 5.461-1.5 39.15 39.15 0 0 0 5.9492-2.6914 30.7471 30.7471 0 0 0 5.0117-3.7969 29.2314 29.2314 0 0 0 3.1445-3.34 60.51 60.51 0 0 0 4.3438-5.9024 65.1459 65.1459 0 0 0 5.1133-10.2656 66.0188 66.0188 0 0 0 3.34-10.1328 95.3767 95.3767 0 0 0 1.9258-12.1992 94.2938 94.2938 0 0 0 .4414-11.5039 116.1137 116.1137 0 0 0-3.16-24.2735 165.9314 165.9314 0 0 0-7.1211-22.34 209.573 209.573 0 0 0-10.207-22.43 292.04 292.04 0 0 0-24.8476-38.6328c-19.0391-25.3516-41.5547-48.1914-67.3829-66.6523a235.7764 235.7764 0 0 0-39.9062-22.8868 219.1646 219.1646 0 0 0-23.1367-8.9687c-7.4024-2.3828-14.9453-4.332-22.5235-6.0664-16.1757-3.7031-32.82-5.2852-49.332-6.6524a237.7176 237.7176 0 0 0-39.2148-.2461q-10.1836.832-20.3555 1.7227c-2.9531.2617-5.9023.5547-8.8516.8477q-.8928.0874-1.7876.1781l-.0366-.1117a89.6281 89.6281 0 0 1-3.3518-13.1548 39.2987 39.2987 0 0 1-.1737-6.8355 28.1064 28.1064 0 0 1 1.1023-4.0049q.2787-.5556.5821-1.0959.3546-.2744.7083-.55a10 10 0 0 0-4.41-16.7109 10.77 10.77 0 0 0-2.8223-.3669 8.3769 8.3769 0 0 0-4.8847 1.3747zm39.2774 59.1172a264.5119 264.5119 0 0 1 28.4257-1.0547c7.2461.1836 14.4844.7266 21.6993 1.418 6.8874.6555 13.7783 1.3281 20.64 2.2012a246.3519 246.3519 0 0 1 27.43 5.6386 213.1788 213.1788 0 0 1 27.349 9.0229 237.5978 237.5978 0 0 1 50 29.278 307.2788 307.2788 0 0 1 52.0824 52.5478q9.7152 12.7029 18.131 26.3193a216.7921 216.7921 0 0 1 14.9924 28.2615c4.7018 11.4112 8.5991 23.2634 10.4342 35.4878a98.8529 98.8529 0 0 1 .0586 22.434 67.8593 67.8593 0 0 1-3.82 14.2769 53.6863 53.6863 0 0 1-5.1259 9.0382 32.467 32.467 0 0 1-3.145 3.26 21.4635 21.4635 0 0 1-2.1964 1.2473 36.2708 36.2708 0 0 1-5.8421 1.5164 29.7117 29.7117 0 0 1-5.0076-.0645c-3.6736-.5931-7.3149-1.4248-10.9617-2.1333q-6.4629-1.26-12.84-2.8945a181.41 181.41 0 0 1-24.0272-8.2866 231.9433 231.9433 0 0 1-31.2813-16.51c-9.9614-6.2347-19.4974-13.1252-28.8108-20.2849a548.8067 548.8067 0 0 1-53.6385-48.2151 626.9631 626.9631 0 0 1-48.2025-55.1321c-11.03-14.3567-21.4864-29.1469-31.1647-44.45-5.0234-7.9414-9.8164-16.0352-14.4687-24.1953-3.2014-5.6152-6.2627-11.3116-9.0587-17.1355 6.1113-.5813 12.2295-1.0887 18.3478-1.5911zm138.7457 191.155q.2778.2152.555.4309c-.1848-.143-.37-.2876-.555-.4309z"/>
    <path d="M343.5921 411.6509a100.0828 100.0828 0 0 0-12.4258 1.6484 97.6778 97.6778 0 0 0-11.3945 2.8828 108.5709 108.5709 0 0 0-21.8633 9.66 152.9974 152.9974 0 0 0-19.539 13.9218 167.9716 167.9716 0 0 0-16.4453 15.3125c-5.2071 5.543-10.0274 11.4414-14.6915 17.4453-5.0351 6.4844-9.9062 13.0743-14.4335 19.93a256.6543 256.6543 0 0 0-22.4922 42.3244c-6.3164 15.0976-10.9063 31.0469-12.25 47.4023a96.9022 96.9022 0 0 0 1.0586 24.6328 62.2336 62.2336 0 0 0 2.6211 9.668 56.5551 56.5551 0 0 0 5.164 11.18 35.6654 35.6654 0 0 0 7.1836 8.3516 45.0612 45.0612 0 0 0 10.2813 6.68 38.4528 38.4528 0 0 0 10.7461 3.4219 55.5087 55.5087 0 0 0 6.8671.625 47.9432 47.9432 0 0 0 6.0821-.3633 92.3727 92.3727 0 0 0 23.3086-5.5976 168.1766 168.1766 0 0 0 22.289-11.043c13.9375-7.9726 26.7266-17.7656 39.293-27.7187 6.3125-5 12.4453-10.2344 18.5156-15.5274 2.5547-2.2265 5.1094-4.4531 7.586-6.7617q8.0625-7.5234 16.1289-15.043c2.93-2.73 5.9843-5.3672 8.7578-8.2617q7.4-7.7168 14.8047-15.4336 2.5782-2.6895 5.1524-5.375c1.1289-1.1758 2.1445-2.4687 3.207-3.6992q5.0157-5.83 10.0352-11.6564c2.27-2.6367 4.3359-5.414 6.4218-8.1992 3.1407-4.1953 6.32-8.3242 9.1328-12.7578a72.33 72.33 0 0 0 7.668-15.8047 29.2833 29.2833 0 0 0 1.4258-8.5039 17.3536 17.3536 0 0 0-1.041-6.16 9.9992 9.9992 0 0 0 3.42-13.5818c-.5234-.6758-1.043-1.3476-1.5664-2.0234a9.9716 9.9716 0 0 0-4.41-2.57q-.387-.1551-.7724-.3138a37.6187 37.6187 0 0 1-6.71-4.2465c-2.8212-2.2382-5.5713-4.56-8.42-6.76-3.16-2.4414-6.34-4.8554-9.6406-7.0976a122.7467 122.7467 0 0 0-21.91-11.4961 112.7048 112.7048 0 0 0-43.02-9.2039q-2.0639 0-4.1244.1141zm14.477 20.5546a107.433 107.433 0 0 1 13.3511 2.77 117.0665 117.0665 0 0 1 12.8151 4.5611 126.8987 126.8987 0 0 1 14.4272 7.5092 132.5686 132.5686 0 0 1 12.3894 8.6808c3.4014 2.6991 6.6952 5.513 10.1887 8.1043q.3453.2564.6925.5094a10.106 10.106 0 0 0-.3292 10.5766q.0813.1328.16.2669-.0008.2277-.0081.4559a32.628 32.628 0 0 1-1.4628 4.7314c-4.038 8.7577-10.0232 16.3562-15.8116 24.0154q-5.89 6.8431-11.7841 13.6866c-2.7032 3.1407-5.5353 6.1016-8.4064 9.0938q-7.3184 7.629-14.6328 15.2618c-2.832 2.9531-5.9687 5.6406-8.9609 8.4336q-8.168 7.6113-16.332 15.23c-3.2383 3.02-6.6133 5.8906-9.961 8.789-5.9424 5.1469-11.9812 10.18-18.1777 15.0195-7.82 6.0111-15.6762 11.984-23.9668 17.34-4.1406 2.6719-8.4336 5.1055-12.7344 7.5078-4.1678 2.33-8.4056 4.5246-12.7721 6.4522a88.2307 88.2307 0 0 1-19.0025 5.1991 46.1857 46.1857 0 0 1-8.7528.1874 32.1609 32.1609 0 0 1-5.0353-1.4057 39.3819 39.3819 0 0 1-5.8745-3.4378 30.6542 30.6542 0 0 1-3.2419-3.189 38.7558 38.7558 0 0 1-3.1779-5.679 63.681 63.681 0 0 1-3.4977-12.801 96.6293 96.6293 0 0 1 .2852-21.8768 160.7634 160.7634 0 0 1 10.7079-37.0746 262.4985 262.4985 0 0 1 32.8085-55.2255c4.8535-6.22 9.9083-12.2781 15.3422-18.001a166.5042 166.5042 0 0 1 17.8393-16.1059 115.4328 115.4328 0 0 1 22.7255-13.7177 100.3653 100.3653 0 0 1 21.8355-6.0376 79.9831 79.9831 0 0 1 18.354.17zm-95.1293 52.4341q-.1759.2289-.3523.4569.1761-.2284.3523-.4569z"/>
    <path d="M424.9002 433.6106a9.9939 9.9939 0 0 0-3.586 13.6836q.7794 1.0077 1.5625 2.0234a9.9594 9.9594 0 0 0 4.1067 2.4806c1.7268.8452 3.3971 1.8483 5.0222 2.8514 1.8516 1.1368 3.711 2.2618 5.5352 3.4453q2.97 1.9213 5.9343 3.8447a67.91 67.91 0 0 0-7.2038 6.628c-2.293 2.4375-4.4024 5.043-6.4727 7.668-2.6445 3.3515-5.2617 6.73-7.7539 10.1953a190.7918 190.7918 0 0 0-11.9844 19.32c-3.68 6.6719-7.07 13.5039-10.4258 20.3437-3.4882 7.1016-6.832 14.2579-9.9687 21.52-6.5508 15.1679-12.418 30.6172-18.0156 46.164-5.4961 15.27-10.4493 30.7344-15.086 46.2852-2.3554 7.9141-4.7656 15.8281-6.7148 23.8516q-5.0333 20.7246-10.07 41.4531-2.6544 10.916-5.3047 21.8359c-1.0078 4.1328-1.8516 8.3047-2.7305 12.4649-2.3008 10.8359-4.289 21.6953-5.75 32.6757.1172-.8867.2383-1.7734.3555-2.6562-.586 4.34-1.3008 8.6641-1.82 13.0195-.2188 1.8711-.3321 3.75-.3633 5.6367a48.0287 48.0287 0 0 0 .7734 8.0157 44.7312 44.7312 0 0 0 2.4883 9.2383 52.9109 52.9109 0 0 0 2.6875 5.9765 37.4066 37.4066 0 0 0 4.1406 5.8047 47.9532 47.9532 0 0 0 8.6328 7.7578 43.82 43.82 0 0 0 11.0821 5.7891 40.6648 40.6648 0 0 0 11.1719 2.0195 60.0063 60.0063 0 0 0 12.7695-.7344 77.899 77.899 0 0 0 21.7031-6.5117 93.5889 93.5889 0 0 0 18.1641-11.4258q9.293-7.16 17.8867-15.1562a182.5625 182.5625 0 0 0 15.4531-16.5c5.2305-6.2227 10.16-12.707 15.0039-19.2344 4.6289-6.23 9.1172-12.5508 13.3828-19.0351a398.599 398.599 0 0 0 23.3594-40.77 330.7569 330.7569 0 0 0 18.6328-45q3.7208-11.373 6.43-23.0429a238.8106 238.8106 0 0 0 4.2656-25.293 200.362 200.362 0 0 0 1.4141-24.2461 183.6237 183.6237 0 0 0-2.0547-25.6445 171.0744 171.0744 0 0 0-13.6406-46.5157 116.38 116.38 0 0 0-11.4453-19.6015 194.8362 194.8362 0 0 0-15.34-18.9258q-2.2259-2.4051-4.55-4.7285.0915-.27.1673-.5449a10.0713 10.0713 0 0 0-1.0078-7.7071c-.5234-.6758-1.043-1.3476-1.5625-2.0234a9.984 9.984 0 0 0-4.4141-2.57c-1.6093-.6289-3.2265-1.2149-4.8476-1.8086a30.4462 30.4462 0 0 0-5.2813-1.5586q-1.1693-.2015-2.3507-.3053-1.35-1.011-2.7079-2.0111c-3.2421-2.3906-6.6562-4.543-10.0273-6.7461-2.9063-1.8985-5.8008-3.836-8.7578-5.66-1.5156-.93-3.0078-1.9062-4.5469-2.7851-.9141-.5235-1.832-1.0469-2.7461-1.57a46.2129 46.2129 0 0 0-5.8867-2.6875 6.6672 6.6672 0 0 0-2.4615-.4314 10.8887 10.8887 0 0 0-5.2455 1.4392zm36.19 40.8242a171.9988 171.9988 0 0 1 25.5788 26.4914c2.8656 3.7884 5.5811 7.6755 8.0549 11.7312a112.6032 112.6032 0 0 1 6.99 13.68 169.0513 169.0513 0 0 1 10.6077 39.7419 186.8237 186.8237 0 0 1-.4036 46.3891c-3.0619 21.45-9.3929 42.4077-17.6945 62.3978a388.8278 388.8278 0 0 1-22.5345 44.2013 406.5872 406.5872 0 0 1-27.8821 40.9232 239.5541 239.5541 0 0 1-17.7663 20.5885 204.2327 204.2327 0 0 1-19.5012 17.3 93.77 93.77 0 0 1-17.641 10.826 70.3492 70.3492 0 0 1-14.6779 3.9807 52.1254 52.1254 0 0 1-10.2558.152 30.9122 30.9122 0 0 1-4.9161-1.3064 39.6305 39.6305 0 0 1-5.7-3.412 40.5709 40.5709 0 0 1-4.66-4.5547 28.8581 28.8581 0 0 1-2.1639-3.8 47.0428 47.0428 0 0 1-2.2039-8.1947 48.2447 48.2447 0 0 1 .3211-9.7738c.44-3.1161.9078-6.2259 1.3344-9.3429q-.106.7871-.213 1.5748c2.4375-17.7343 6.461-35.1953 10.6836-52.5781q5.4433-22.3946 10.8829-44.793 1.2363-5.08 2.4687-10.1562c.8086-3.3281 1.8359-6.6094 2.7773-9.9023q2.9474-10.3008 6.0938-20.543c7.9048-25.734 16.889-51.2174 27.2888-76.0562 5.22-12.2408 10.997-24.2347 17.0784-36.0688 3.0625-5.9649 6.293-11.84 9.7812-17.5664a176.4655 176.4655 0 0 1 10.633-15.3593 87.4826 87.4826 0 0 1 12.7813-13.8114 31.7987 31.7987 0 0 1 4.0115-2.5052q.4221-.1356.8468-.2538z"/>
    <path d="M483.0842 424.7996a10.0416 10.0416 0 0 0 2.93 7.0742 10.3455 10.3455 0 0 0 7.07 2.9258c6.4063.3477 12.7969 1.3047 19.16 2.0938 5.4935.6811 10.9813 1.3986 16.468 2.11a173.9515 173.9515 0 0 1 19.6453 3.91 153.0076 153.0076 0 0 1 17.699 6.1747 174.5029 174.5029 0 0 1 17.9143 8.8409 159.98 159.98 0 0 1 16.8751 11.299 148.6743 148.6743 0 0 1 14.3631 12.8768 174.77 174.77 0 0 1 12.4357 14.3862c4.5163 5.9238 8.7794 12.03 12.7323 18.3482 4.2891 6.8554 8.2149 13.93 12.0391 21.0507 7.91 14.7414 15.0049 29.8761 21.532 45.2808 4.4456 10.5584 8.9185 21.1233 12.6945 31.9419 1.961 5.6211 3.5664 11.3281 5.0938 17.0742a165.8537 165.8537 0 0 1 3.8192 16.8239 56.2815 56.2815 0 0 1 .0646 11.9254c-.1852 1.13-.4058 2.2517-.6834 3.3588q-.4231-.1343-.8425-.2808a54.4078 54.4078 0 0 1-6.2329-3.839c-2.5274-1.7227-5.125-3.3359-7.6875-5.0039q-7.8-5.08-15.2123-10.7014c-5.9285-4.6336-11.7043-9.4509-17.3776-14.3924q-4.2948-3.744-8.5078-7.5781c-1.0468-.9492-2.1132-1.875-3.1172-2.8711q-5.2851-5.2383-10.5742-10.4765-14.8008-14.672-29.6093-29.3438c-1.5157-1.5-2.8985-3.1094-4.3165-4.6992q-6.6738-7.4824-13.3437-14.9648-13.2949-14.9122-26.5977-29.8321c-3.6679-4.1133-7.16-8.3867-10.707-12.6015-6.4679-7.6856-12.858-15.4391-19.0344-23.3645q-10.9742-14.2939-20.6882-29.46c-3.2461-5.0546-6.3985-10.1718-9.5079-15.3125-3.2265-5.3281-6.1406-10.8046-9.1328-16.2617a10.00172108 10.00172108 0 0 0-17.27 10.0938c1.7852 3.2578 3.5117 6.5508 5.32 9.8008 1.9844 3.5625 4.1484 7.0312 6.2734 10.5117q6.1875 10.1192 12.77 19.9843c9.164 13.6563 19.3125 26.629 29.7617 39.3165 6.1562 7.4726 12.3164 14.9765 18.7578 22.2031q5.8066 6.5156 11.6094 13.0234 14.332 16.0723 28.664 32.1485c1.3555 1.52 2.7071 2.9726 4.1524 4.4023q6.7968 6.7324 13.5859 13.4648 13.0137 12.8907 26.0235 25.7891c2.0273 2.0078 4.2382 3.8633 6.3632 5.7695q4.6 4.1133 9.2969 8.1211 9.6328 8.2266 19.7891 15.82c3.0547 2.2774 6.1914 4.4493 9.3555 6.5743 3.3515 2.2539 6.8007 4.3593 10.1484 6.6211 1.4414.9726 2.8711 1.9609 4.3437 2.8906a36.8449 36.8449 0 0 0 6.1524 2.9922 34.9294 34.9294 0 0 0 4.3672 1.3711 23.3591 23.3591 0 0 0 6.9687.8164 13.4475 13.4475 0 0 0 7.09-2.18 19.2871 19.2871 0 0 0 2.7695-2.2852 25.216 25.216 0 0 0 2.2305-2.9023 24.4368 24.4368 0 0 0 2.3789-5.1524 28.3122 28.3122 0 0 0 1.2812-4.6718 70.9017 70.9017 0 0 0 1.2891-10.4336 68.6527 68.6527 0 0 0-1.0274-13.4141c-1.0937-7.6016-3.2773-15.0664-5.2929-22.4609a225.5719 225.5719 0 0 0-7.6289-22.41c-2.8789-7.3828-5.9805-14.68-9.043-21.9883-3.3242-7.9258-6.7461-15.8008-10.3594-23.5976a468.7545 468.7545 0 0 0-22.0156-42.0078q-5.9-9.961-12.7617-19.2891a231.3409 231.3409 0 0 0-15.3321-18.9688 143.569 143.569 0 0 0-16.664-15.5468 187.7363 187.7363 0 0 0-20.1563-14.1328 162.9712 162.9712 0 0 0-20.5078-10.2032 176.7066 176.7066 0 0 0-23.2344-8.2382c-10.2656-2.7657-20.93-3.8477-31.4531-5.211-4.4531-.5781-8.9062-1.1289-13.3594-1.68-4.6445-.5781-9.3242-1.1992-14-1.4531-.15-.0081-.3013-.0121-.45-.0121-5.2441-.0006-9.55 4.93-9.55 10.0121z"/>
    <path d="M516.3397 422.4596a10.0416 10.0416 0 0 0 2.93 7.0742 10.2678 10.2678 0 0 0 7.07 2.9258q1.6012.064 3.2019.1382a9.7517 9.7517 0 0 0-2.3972 9.4946c1.1016 3.543 2.0977 7.1172 3.2578 10.6445 1.25 3.8047 2.7579 7.5352 4.1875 11.2774 2.9649 7.7265 6.1094 15.3945 9.625 22.8867a232.0473 232.0473 0 0 0 23.8868 39.0429 271.105 271.105 0 0 0 31.3984 35.5352 330.2132 330.2132 0 0 0 37.0859 30.2617 474.9007 474.9007 0 0 0 82.0391 46.1953 275.6129 275.6129 0 0 0 46.2383 16.1172c8.3242 2.0117 16.8164 3.7227 25.3945 3.9883 1.6484.0508 3.2969.0859 4.9453.0625a51.9556 51.9556 0 0 0 6.73-.707 22.7829 22.7829 0 0 0 6.1367-2.0625 28.0947 28.0947 0 0 0 4.9024-2.918 44.8237 44.8237 0 0 0 8.6523-8.1289 50.8607 50.8607 0 0 0 6.6367-10.5195 77.1269 77.1269 0 0 0 4.1914-11.2383 88.8553 88.8553 0 0 0 2.4375-12.668c2.0821-15.6211-.2578-31.7422-5.5508-46.52a171.2042 171.2042 0 0 0-22.1015-41.6289 242.7373 242.7373 0 0 0-30.9141-35.3633 218.4992 218.4992 0 0 0-37.5547-28.5117 247.596 247.596 0 0 0-43.4922-20.43c-7.4062-2.6524-14.9531-4.8867-22.5351-6.9649-7.625-2.0859-15.293-3.9765-23.0508-5.5117-10.7187-2.1211-21.5273-3.82-32.3594-5.2422q-10.1835-1.3359-20.3672-2.6757c-1.4843-.1914-2.9843-.2579-4.4765-.3711l-11.6367-.8907c-10.4883-.8007-20.9883-1.375-31.4883-1.9961-7.6719-.4531-15.3438-.9882-23.0235-1.2968-.1147-.0045-.23-.0067-.3435-.0069-5.2959 0-9.6565 4.833-9.6565 10.0069zm35.5664 31.0429c-.98-2.6015-1.9453-5.1992-2.789-7.8476-.9414-2.9453-1.7656-5.9258-2.6875-8.8789a10.728 10.728 0 0 0-1.7233-3.3333c4.3019.2675 8.6027.5463 12.903.8059 5.7148.3438 11.4375.6016 17.1445 1.0391l19.7813 1.5117c4.0273.3086 8.0273.9492 12.0312 1.4766q6.79.89 13.5845 1.7828c13.7352 2.2034 27.4243 4.4867 40.9 7.9789a297.0636 297.0636 0 0 1 38.52 12.3444 226.2648 226.2648 0 0 1 47.6521 27.2589 232.9516 232.9516 0 0 1 39.2267 39.4223 177.5112 177.5112 0 0 1 21.6346 36.5132 107.6521 107.6521 0 0 1 6.8906 24.0827 90.13 90.13 0 0 1 .1167 20.5656 74.0123 74.0123 0 0 1-4.02 15.2506 45.7868 45.7868 0 0 1-4.2783 7.5075 39.5275 39.5275 0 0 1-4.6707 4.7013 28.3937 28.3937 0 0 1-2.9757 1.8056 19.6694 19.6694 0 0 1-2.0153.5131 67.0588 67.0588 0 0 1-13.0409-.3959 191.27 191.27 0 0 1-26.7122-6.331 268.4027 268.4027 0 0 1-25.3621-9.1847 477.9281 477.9281 0 0 1-49.7668-24.9559c-8.1523-4.6719-16.1094-9.6719-23.9727-14.8125-7.5107-4.9108-14.8806-10.0386-22.0156-15.48a282.3042 282.3042 0 0 1-48.7514-48.1554 275.1288 275.1288 0 0 1-16.4283-24.1416 209.4448 209.4448 0 0 1-13.143-25.6562c-2.1094-5.0882-4.0935-10.2288-6.0328-15.3868zm34.6641 63.9766q.2505.3216.5.644-.25-.3213-.5-.644z"/>
    <path d="M280.6111 314.1704a198.1773 198.1773 0 0 0-48.9687 6.5391 284.3305 284.3305 0 0 0-46.129 16.418c-14.2656 6.4414-27.98 14.0859-41.5429 21.875-28.1406 16.16-54.2071 35.6327-79.3711 56.0429-10.3711 8.414-20.418 17.2383-30.582 25.9062-3.5625 3.0391-6.9805 6.25-10.4532 9.3946q-3.3633 3.041-6.73 6.0859c-1.6211 1.4688-3.2149 2.9727-4.8086 4.4727a72.1567 72.1567 0 0 0-8.5743 9.8125 22.5886 22.5886 0 0 0-2.7851 6.0234 15.37 15.37 0 0 0-.2149 8.207 14.3451 14.3451 0 0 0 1.5743 3.4844 20.6445 20.6445 0 0 0 2.414 3.0547 12.047 12.047 0 0 0 1.6407 1.4141 45.6113 45.6113 0 0 0 3.8984 2.8007 52.0273 52.0273 0 0 0 10.4603 4.688 79.4645 79.4645 0 0 0 10.9141 2.6875 210.5588 210.5588 0 0 0 24.8008 3.3321 135.1278 135.1278 0 0 0 23.8476-.6055c32.5-3.5078 63.793-14.0156 94.1094-25.8164 13.9336-5.4219 27.66-11.4414 41.3594-17.43q7.9043-3.4512 15.8047-6.9023c9.57-4.1836 19.125-8.3946 28.7422-12.4649q11.3194-4.79 22.6353-9.5784c12.2793-4.82 24.5113-9.77 36.9154-14.2575a218.7228 218.7228 0 0 1 36.3672-9.8672c5.6758-1 11.3477-2.0234 17.0313-2.9727 5.6212-.9431 11.24-1.8652 16.8788-2.6683 1.1428-.12 2.2778-.24 3.4259-.2692a9.98 9.98 0 0 0 6.4625-17.6027 79.064 79.064 0 0 0 11.6937 7.302 10.4556 10.4556 0 0 0 7.707 1.0078 10.0018 10.0018 0 0 0 6.9844-12.3008 9.7688 9.7688 0 0 0-4.5976-5.9766 79.0779 79.0779 0 0 1-11.8653-7.456c-2.4869-1.9883-4.89-4.0738-7.3027-6.1533-2.9766-2.5625-6.0547-4.9961-9.1055-7.4687a204.9219 204.9219 0 0 0-19.5039-14.5039 175.8907 175.8907 0 0 0-20.5347-11.2463 167.3266 167.3266 0 0 0-23.6563-8.6446 177.7518 177.7518 0 0 0-48.7853-6.3633zm24.2636 21.483a157.6211 157.6211 0 0 1 36.497 10.0255 160.9824 160.9824 0 0 1 16.6808 8.6048 153.77 153.77 0 0 1 15.0645 9.9832c5.8231 4.5514 11.5595 9.2252 17.1543 14.048 2.6867 2.317 5.4333 4.6063 8.276 6.7682a9.3252 9.3252 0 0 0-5.276-1.5065 98.9916 98.9916 0 0 0-10.7657 1.25c-2.4648.336-4.93.7383-7.3828 1.1485-5.2187.875-10.4375 1.7461-15.6484 2.664q-5.4667.9669-10.93 1.93c-5.5859.9844-11.125 2.3828-16.6016 3.84a286.4511 286.4511 0 0 0-30.7109 10.5429c-10.9609 4.2969-21.9336 8.5391-32.7773 13.125-9.8555 4.1719-19.7422 8.2813-29.5547 12.5664-18.7918 8.2084-37.5594 16.4949-56.4432 24.4953-16.0462 6.7329-32.3964 12.8336-48.9357 18.2391-8.5 2.7774-17.0977 5.1563-25.793 7.2227-8.3 1.9688-16.6632 3.6859-25.1054 4.8907a148.8919 148.8919 0 0 1-17.8712 1.2108 140.6822 140.6822 0 0 1-17.6523-1.1656c-4.0615-.5819-8.1071-1.2855-12.1328-2.0766a69.2458 69.2458 0 0 1-11.231-3.0921q-.92-.43-1.8171-.9014a121.164 121.164 0 0 1 9.302-9.1119q3.6093-3.2637 7.2187-6.5313c3.3477-3.0273 6.6485-6.1093 10.086-9.039 10.5312-8.9805 20.957-18.0938 31.7109-26.8047q8.0457-6.52 16.209-12.8921a556.9626 556.9626 0 0 1 50.2441-34.4595c8.8633-5.375 17.9414-10.4218 27.07-15.332 8.7563-4.7091 17.6581-9.143 26.7878-13.0749a289.1471 289.1471 0 0 1 28.1113-9.9213 212.6191 212.6191 0 0 1 30.08-6.73 186.4736 186.4736 0 0 1 46.1368.084z"/>
    <path d="M627.8897 306.0976a152.963 152.963 0 0 0-24.2188 5.5078 103.2046 103.2046 0 0 0-22.9531 10.0977 54.3655 54.3655 0 0 0-9.8477 7.6484 24.5817 24.5817 0 0 0-4.3437 5.8321 14.5775 14.5775 0 0 0-1.7539 8.4609 34.4166 34.4166 0 0 0 1.2656 6.7383 43.2361 43.2361 0 0 0 2.582 6.043c.8868 1.7773 1.7618 3.5586 2.6836 5.32 2.5235 4.8281 9.1485 6.2422 13.6836 3.5859a10.059 10.059 0 0 0 4.5938-5.9726 10.3439 10.3439 0 0 0-1.0078-7.7071c-1.0785-2.066-2.1546-4.1483-3.1292-6.2712-.2-.5808-.3784-1.1612-.5318-1.7484a31.0039 31.0039 0 0 1 2.681-2.4742 69.8637 69.8637 0 0 1 12.7014-7.13 147.1878 147.1878 0 0 1 34.33-8.8455 245.2516 245.2516 0 0 1 61.2514.41 291.11 291.11 0 0 1 38.9667 8.4419 345.0048 345.0048 0 0 1 38.2015 13.3117c14.33 6.1083 28.435 12.7336 42.1969 20.0243q12.0762 6.3984 24.0118 13.0547l17.59 9.8086c4.832 2.6914 9.5234 5.664 14.2773 8.5 2.5934 1.5462 5.2046 3.0676 7.742 4.7q-.3962.19-.7977.3735a96.6389 96.6389 0 0 1-12.5693 3.8207c-4.75 1.1476-9.5424 2.043-14.3737 2.7423-16.2155 2.0592-32.5646 2.7883-48.8763 3.703-10.0742.5664-20.1484 1.1094-30.2187 1.7031q-20.6836 1.2129-41.3633 2.4336c-10.1562.5977-20.3125 1.5586-30.43 2.6367a414.6287 414.6287 0 0 0-49.3906 8.4375 408.9577 408.9577 0 0 0-46.375 13.6211c-6.7656 2.4336-13.3594 5.2461-20 8.0039-4.9766 2.07-10.0039 4.0547-14.9141 6.2813q-9.2284 4.1835-18.4609 8.3672-6.9492 3.1523-13.8828 6.332c-5.375 2.4492-10.8672 4.7891-16.0938 7.543-4.82 2.539-6.25 9.1367-3.59 13.6836a10.0785 10.0785 0 0 0 5.9766 4.5937 10.3048 10.3048 0 0 0 7.707-1.0078c4.2734-2.25 8.7461-4.1641 13.1328-6.18q6.5274-3.0058 13.07-5.9726 11.7578-5.3624 23.5388-10.6825c9.8654-4.1241 19.683-8.3861 29.7464-12.005a400.4429 400.4429 0 0 1 40.7812-12.18 406.3947 406.3947 0 0 1 39.9594-7.79c7.7931-1.0089 15.6106-1.7647 23.4391-2.4408 4.5507-.3945 9.1054-.8477 13.664-1.1172l18.34-1.0781c10.0312-.5938 20.0625-1.2031 30.0937-1.7656q21.34-1.1954 42.6758-2.3946c7.7031-.4336 15.3906-1.0781 23.0742-1.8007a204.9441 204.9441 0 0 0 25.4649-3.7735 93.2791 93.2791 0 0 0 22.75-7.7969 35.98 35.98 0 0 0 5.5585-3.9882c1.59-1.2618 3.0743-2.6563 4.6641-3.918a9.9921 9.9921 0 0 0 2.5742-4.4141 10.41 10.41 0 0 0-1.0078-7.7031c-.3359-.6641-.6562-1.332-.9844-1.9961a17.5276 17.5276 0 0 0-2.3359-3.2617 23.3123 23.3123 0 0 0-3.3633-3.1758 101.5388 101.5388 0 0 0-11.1094-7.5664q-3.6621-2.1972-7.332-4.3906c-4.1836-2.4961-8.332-5.0469-12.5859-7.418-15.9961-8.918-31.9453-17.93-48.2578-26.2578-7.1133-3.6328-14.3633-6.9766-21.6328-10.2773-7.7149-3.5-15.4961-6.8555-23.3633-9.9883a336.9715 336.9715 0 0 0-45.5469-14.293 280.1253 280.1253 0 0 0-49.2383-7.2461q-6.674-.3936-13.3391-.39a247.8159 247.8159 0 0 0-35.7507 2.656z"/>
    <path d="M815.5659 211.0553c-3.9765.23-7.9765.3984-11.9414.8242q-3.24.3516-6.4843.6953-21.7383 2.332-43.4805 4.6641c-8.6172.9257-17.1914 2.25-25.7734 3.457q-21.381 2.9941-42.7579 5.9961c-8.4961 1.1914-16.9492 2.7305-25.3984 4.2109-15.9375 2.793-31.7422 6.0742-47.4062 10.1367-15.2852 3.961-30.4922 8.293-45.2188 14.0235a275.9879 275.9879 0 0 0-42.82 20.8125 210.3826 210.3826 0 0 0-19.6016 13.75 146.956 146.956 0 0 0-16.09 14.0782 73.3843 73.3843 0 0 0-12.9414 17.9375 60.7511 60.7511 0 0 0-4.2383 10.8164 40.2234 40.2234 0 0 0-1.1172 6.5273 27.6791 27.6791 0 0 0 .3047 7.0664c.668 4.6914 3.6406 8.5938 6.5937 12.1133 1.1836 1.41 2.4844 2.7227 3.7422 4.0664a46.0469 46.0469 0 0 0 4.6875 4.07c.6758.5235 1.3477 1.043 2.0235 1.5625a10.0009 10.0009 0 0 0 15.0468-8.6328c0-2.418-.98-5.4805-2.93-7.07a44.7365 44.7365 0 0 1-4.6875-4.0742c-1.3226-1.4285-2.6741-2.8281-3.9355-4.3092-.3346-.4888-.6484-.9867-.9381-1.5016q-.0189-.07-.037-.1395c-.0218-.71-.0061-1.417.0411-2.1281a39.256 39.256 0 0 1 1.9508-6.6332 60.3029 60.3029 0 0 1 6.25-10.6136c5.5735-6.8461 12.2716-12.6317 19.2131-18.058a202.2717 202.2717 0 0 1 23.885-15.7028 280.9363 280.9363 0 0 1 26.495-12.8659c14.3233-5.92 29.1795-10.37 44.1418-14.3646 7.7265-2.0664 15.4726-4.039 23.2812-5.7851 7.9141-1.7735 15.8828-3.3164 23.8633-4.77 7.9883-1.4531 15.9922-2.789 24-4.1289 1.9648-.3281 3.9219-.6562 5.8906-.93q8.5665-1.2071 17.1328-2.4062l43.4731-6.0971q17.5176-1.8663 35.0347-3.7545 9.0645-.9726 18.125-1.9453c2.8829-.3086 5.7774-.4687 8.6719-.6562 8.2266-.5313 16.4571-.9219 24.6992-1a223.4773 223.4773 0 0 1 28.8752 1.39 101.6078 101.6078 0 0 1 12.1639 2.5081 108.0362 108.0362 0 0 1 11.2728 3.9948q.1041.05.2075.1009.0006.232-.0051.4641-.0454.171-.0957.3411a22.6559 22.6559 0 0 1-1.4009 2.3066 64.6311 64.6311 0 0 1-9.5315 8.6262q-2.5159 1.9389-5.0291 3.885c.6718-.5234 1.3476-1.0429 2.0234-1.5664-11.8086 8.9571-25.3086 15.18-38.3867 21.9962-3.4141 1.7812-6.9453 3.3516-10.4219 5.0117q-20.1151 9.6036-40.2265 19.207c-20.2344 9.66-40.6446 18.9532-60.9766 28.3985-20.0547 9.32-39.9219 19.039-59.8633 28.5976-19.3828 9.2852-38.625 18.8594-57.9219 28.3242q-14.326 7.0254-28.6406 14.07c-3.4141 1.6758-6.8008 3.4453-10.2734 5.0039q-9.7032 4.3536-19.41 8.7149-1.1229.5028-2.2472 1.0084a9.7182 9.7182 0 0 0-1.8835.8425q-.2387.1029-.4865.2077-7.5257 3.1752-15.0472 6.35c-3.9943 1.6729-7.9817 3.3558-11.984 5.0091-4.711 1.9492-9.4063 4.043-14.2266 5.7227a10.5078 10.5078 0 0 0-5.9765 4.5976 9.9961 9.9961 0 0 0 3.59 13.68 9.763 9.763 0 0 0 7.7031 1.0078c5.0977-1.7773 10.086-3.9843 15.0664-6.0664q7.91-3.3105 15.8164-6.6367 5.2091-2.1972 10.418-4.3984 1.39-.5845 2.7776-1.17c.0276-.0108.055-.0216.0818-.0328q.1779-.0752.3547-.1491a10.1965 10.1965 0 0 0 1.4739-.6189c.281-.12.5618-.2422.8433-.3688q3.668-1.6464 7.332-3.2929 8.4609-3.7969 16.918-7.5938c4.3945-1.9726 8.6757-4.2617 13-6.3867q13.3827-6.5742 26.77-13.1484c19.6445-9.6368 39.25-19.3594 58.9844-28.8164 19.8906-9.5312 39.7265-19.1914 59.7265-28.4883 20.3125-9.4375 40.6875-18.75 60.8985-28.3984q19.7636-9.44 39.5234-18.8711c3.8789-1.8516 7.7305-3.7109 11.5508-5.6758 6.332-3.2617 12.707-6.43 18.9336-9.8867q4.6464-2.5722 9.1133-5.4375c2.9443-1.8883 5.7487-3.95 8.5179-6.071l.2248-.1734q-.1122.0867-.2246.1732.3485-.2669.6967-.5353c5.3794-4.117 11.0592-8.1179 15.3281-13.4326a39.9366 39.9366 0 0 0 3.57-5.0235 26.9718 26.9718 0 0 0 2.32-5.4961 21.3 21.3 0 0 0 .7188-6.0117 22.5763 22.5763 0 0 0-1.0469-6.7734 17.3039 17.3039 0 0 0-8.3242-10.0352 43.6654 43.6654 0 0 0-5.668-2.4218c-1.7109-.6563-3.41-1.3438-5.1211-1.9922-7.789-2.9492-16.0117-4.2813-24.2421-5.27a216.4649 216.4649 0 0 0-24.1836-1.3046q-1.01-.0081-2.0213-.0081c-7.5648 0-15.1273.3322-22.678.77zm70.6508 57.5345l-.0414.0319.0416-.0321z"/>
    <path d="M166.7881 150.9931c-6.1836.0547-12.3672.0821-18.5469.1954-3.16.0585-6.3164.1015-9.4726.1992l-4.9805.1523c-2.168.07-4.3281.2735-6.4922.4063a14.4979 14.4979 0 0 0-6.59 1.7031 24.8016 24.8016 0 0 0-3.4688 2.7773 9.9865 9.9865 0 0 0-1.5625 12.1211c.82 1.2578 1.5547 2.5664 2.4532 3.7735a31.7383 31.7383 0 0 0 4.4492 4.8711 99.4216 99.4216 0 0 0 10.16 7.5586c2.07 1.4062 4.1133 2.8437 6.1875 4.2421q9.3048 6.2931 18.6172 12.5782c8.0313 5.43 15.9336 11.0195 23.8516 16.6132q11.8507 8.3728 23.7059 16.75 13.4474 10.3979 26.8839 20.8047 6.1934 4.7989 12.3906 9.59c2.6954 2.0859 5.2891 4.3164 7.9258 6.4765q14.7012 12.0353 29.4063 24.0782c9.34 7.6406 18.8086 15.1289 28.207 22.6914 9.0547 7.2851 18.4727 14.1367 27.7383 21.1445 3.125 2.3633 6.293 4.6016 9.5117 6.8359q4.8867 3.3868 9.7656 6.77c1.5391 1.0664 3.0469 2.2812 4.6641 3.2265q8.2617 4.8282 16.52 9.6524c4.5586 2.66 9.2657 5.0664 13.91 7.5625 9.2383 4.9609 18.4492 10.0078 27.82 14.7109.7266.3633 1.4531.7188 2.1914 1.0547.7969.3359 1.59.6719 2.3867 1.0078a10.0627 10.0627 0 0 0 5.3164 0 9.8313 9.8313 0 0 0 1.3623-.4853 9.865 9.865 0 0 0 9.6534 2.5947c5.125-1.41 8.5976-7.0938 6.9843-12.3008-.98-3.1523-1.9961-6.2891-3.0117-9.4258-.793-2.4531-1.52-4.9414-2.3867-7.375q-3.2168-9.0527-6.4414-18.1133c-1.332-3.746-2.7774-7.414-4.2656-11.1054l-8.2266-20.3438c-1.6719-4.1367-3.4727-8.2226-5.2617-12.3125-3.2227-7.3554-6.5547-14.6679-10.168-21.84-3.5351-7.0117-7.25-13.957-11.18-20.7578a205.1541 205.1541 0 0 0-12.8594-19.4688 237.1258 237.1258 0 0 0-15.7421-19.1836 188.5587 188.5587 0 0 0-16.6329-15.8945 210.5117 210.5117 0 0 0-84.82-44.0586 210.3829 210.3829 0 0 0-23.3119-4.719c-8.4492-1.211-16.9375-2.1016-25.4375-2.8711-10.9922-1-22.0586-1.3789-33.0976-1.57-5.5031-.0963-11.0236-.3228-16.5325-.3228q-.7872 0-1.573.0064zm-.9141 20.0079c5.4493-.0469 10.91.1679 16.3555.2617 9.9922.1758 19.9844.4961 29.957 1.164 8.3929.5591 16.7925 1.43 25.1405 2.5046a212.3075 212.3075 0 0 1 51.0367 13.7136 188.6021 188.6021 0 0 1 60.5689 40.5947 193.0921 193.0921 0 0 1 16.0587 18.2448c3.9462 5.1855 7.6989 10.51 11.1523 16.0443 3.6523 5.8516 6.9648 11.9141 10.1914 18.0078 3.2851 6.1914 6.4453 12.4414 9.4023 18.8008 2.7567 5.9253 5.3662 11.9237 7.9618 17.925q3.01 7.44 6.0148 14.88 2.0214 4.998 4.0391 9.9922c.4687 1.16.9726 2.3125 1.3906 3.4961q3.41 9.58 6.8164 19.164.2878.8085.569 1.6194c-1.62-.8677-3.2349-1.7425-4.85-2.6038q-6.68-3.5625-13.3593-7.1328c-4.9258-2.6445-9.9571-5.1484-14.7852-7.9648q-8.56-5.0039-17.1289-10.0078c-.918-.5391-1.7773-1.1485-2.6523-1.7578q-4.0782-2.8242-8.1524-5.6485c-3.543-2.457-7.1953-4.8086-10.6328-7.414q-12.43-9.3948-24.8555-18.7963-26-20.9188-51.84-42.0123c-6.9453-5.6875-13.8438-11.4063-20.9414-16.8985q-16.9512-13.125-33.9024-26.2382c-8.2812-6.41-16.9765-12.2774-25.5234-18.3165-8.0234-5.6679-16.0078-11.3867-24.1484-16.8867q-8.7187-5.8887-17.4414-11.7812-2.0493-1.3845-4.1144-2.7577c5.89-.102 11.78-.1418 17.6729-.1954zm37.215 62.3786l.5672.4385q-.2836-.219-.5672-.4385z"/>
    <path d="M758.4433 152.6772l-10.2618.3867c-5.5546.2109-11.1054.8711-16.6445 1.3594-4.2461.371-8.4492.8906-12.68 1.4335q-10.5059 1.3478-21.0156 2.6915c-4.3633.5625-8.6953 1.3125-13.0352 2.0312q-11.6367 1.922-23.2695 3.8438c-7.4961 1.2382-14.957 2.6093-22.4219 4.0507q-23.9472 4.6231-47.4648 11.0274a377.9423 377.9423 0 0 0-44.9766 15.3008c-7.6836 3.16-15.2734 6.5351-22.6367 10.3945a199.0421 199.0421 0 0 0-19.4023 11.7461 162.405 162.405 0 0 0-34.5118 30.9062 103.1815 103.1815 0 0 0-11.7851 17.4532 100.791 100.791 0 0 0-4.6524 10.4843 51.2026 51.2026 0 0 0-2.7695 10.168 42.1168 42.1168 0 0 0-.5508 11.16 47.2732 47.2732 0 0 0 2.6016 11.9179 34.3677 34.3677 0 0 0 2.4375 5.3477 43.6636 43.6636 0 0 0 4.0352 5.4219 69.083 69.083 0 0 0 6.957 7.1484 10.2533 10.2533 0 0 0 7.0742 2.93 10.0394 10.0394 0 0 0 7.07-2.93c3.7383-3.7383 4.0039-10.4414 0-14.1406-1.4062-1.3008-2.8437-2.5782-4.1914-3.9414a36.8022 36.8022 0 0 1-2.5334-2.898 24.0679 24.0679 0 0 1-1.7784-2.8667 40.66 40.66 0 0 1-1.7081-6.4651 34.9446 34.9446 0 0 1-.0136-6.0006 55.3879 55.3879 0 0 1 3.1408-10.7638 89.0185 89.0185 0 0 1 9.9073-16.75 145.6536 145.6536 0 0 1 23.8471-23.4875 199.7634 199.7634 0 0 1 43.6579-25.0823 374.8367 374.8367 0 0 1 43.3087-15.0027q23.461-6.5508 47.3633-11.2305c8.0313-1.582 16.07-3.0859 24.1445-4.418q11.5724-1.9159 23.1485-3.8281 4.9821-.8192 9.9643-1.6461 7.4517-.9537 14.9068-1.9125c4.6875-.6016 9.3828-1.3516 14.09-1.7656q9.1465-.8028 18.293-1.6055c2.8242-.25 5.6992-.2187 8.5351-.3242 2.3047-.09 4.5665-.1524 6.875-.0938l.1163.003c-3.1946 1.9619-6.4549 3.8206-9.6788 5.7353-1.8125 1.0781-3.5976 2.1992-5.4179 3.2617q-7.9982 4.6758-16 9.3438-15.9317 9.3047-31.8555 18.6055c-8.9141 5.207-17.6914 10.6679-26.5312 15.9961q-16.3183 9.8438-32.6446 19.6914c-1.7812 1.0742-3.5156 2.23-5.27 3.3515q-8.2909 5.32-16.5781 10.6328l-36.9141 23.6719c-16.9922 10.8984-33.8789 21.957-50.8125 32.9453-3.8633 2.5078-7.6094 5.2188-11.4062 7.8242q-9.1056 6.2461-18.2071 12.4883c-3.1953 2.1914-6.32 4.4805-9.4609 6.75-4.6172 3.34-9.2813 6.625-13.8555 10.0235-5.1445 3.8242-10.3086 7.6171-15.4062 11.5039-3.1094 2.3711-6.2188 4.7382-9.2813 7.1718-2.9765 2.3672-6.1914 4.6914-8.68 7.582a10.5111 10.5111 0 0 0-2.9257 7.0742 9.9958 9.9958 0 0 0 10 10 9.7241 9.7241 0 0 0 7.07-2.93 41.5668 41.5668 0 0 1 5.7382-5.25q2.2545-1.7921 4.5051-3.5806c7.7135-5.8722 15.4622-11.6937 23.3192-17.3763q8.168-5.9 16.332-11.8086c3.5469-2.5664 7.2227-4.9649 10.8281-7.4375 8.293-5.6914 16.5039-11.5078 24.9414-16.9805q18.2813-11.8651 36.5586-23.7305c18.9727-12.3086 38.0469-24.4492 57.086-36.6562 5.6484-3.625 11.2734-7.2539 17.02-10.7188q19.1776-11.5664 38.3594-23.1328c6.5742-3.9687 13.1211-7.9765 19.75-11.8476l37.91-22.1367c3.2617-1.9063 6.5508-3.7735 9.7656-5.7579 5.7422-3.5468 11.6993-6.7265 17.27-10.5507a78.9293 78.9293 0 0 0 9.1133-7.2383 29.0289 29.0289 0 0 0 4.1054-4.9258c.8594-1.2539 1.52-2.6445 2.3242-3.9336a9.9642 9.9642 0 0 0 1.0079-7.707 10.5166 10.5166 0 0 0-4.5977-5.9766 14.7008 14.7008 0 0 0-5.8477-2.5508c-1.582-.2656-3.1992-.4375-4.8007-.582-1.3907-.1289-2.7813-.3047-4.1758-.375-2.5664-.125-5.1289-.2773-7.6992-.3438-2.1862-.0538-4.4009-.2079-6.5978-.2079-.5116 0-1.022.0083-1.5311.0283z"/>
    <path d="M468.7937 308.1743a23.2978 23.2978 0 0 0-5.8125 2.0781 33.7926 33.7926 0 0 0-4.16 2.2735 79.6658 79.6658 0 0 0-9.8985 7.7656c-11.4648 10.1484-20.0117 22.91-27.8789 35.93-4.0273 6.6679-8.0078 13.3672-11.73 20.2109-3.875 7.1289-7.4844 14.3984-10.9493 21.7344-7.2148 15.2656-13.84 30.8476-20.1093 46.5273-6.2188 15.5391-11.8907 31.293-17.2813 47.1367q-4.0488 11.8887-7.8867 23.84c-.8281 2.5547-1.707 5.1015-2.4336 7.6875q-4.5469 16.2012-9.1016 32.4023-6.6855 23.8008-13.3711 47.6094-2.3144 8.2383-4.6328 16.4844c-1.2851 4.582-2.41 9.1719-3.5039 13.8125-7.7734 32.9219-14.4219 66.1445-19.2539 99.6328-2.5 17.3008-4.4414 34.6641-5.4414 52.1172a195.688 195.688 0 0 0-.0859 25.0547c.2343 3.3281.3242 6.6757.7383 9.9882.5625 4.4961 1.4648 9.004 4.3007 12.6836a29.9628 29.9628 0 0 0 4.2891 4.7344 32.7045 32.7045 0 0 0 5.3125 3.7539 21.077 21.077 0 0 0 12.582 2.5664 38.1132 38.1132 0 0 0 6.34-1.1875 55.0185 55.0185 0 0 0 6.1484-2.4179 59.2049 59.2049 0 0 0 9.5039-5.3829 91.8167 91.8167 0 0 0 17.1563-14.7343 181.1369 181.1369 0 0 0 14.3906-18.7578c4.32-6.2579 8.6094-12.5547 12.6133-19.02 4.2343-6.8437 8.1328-13.8906 11.8867-21.0078q11.455-21.7207 21.5976-44.1289a821.7317 821.7317 0 0 0 36.2227-95.082c10.0156-32.125 18.16-64.9414 22.8633-98.2813 1.9922-14.1133 3.5625-28.2968 4.3437-42.5312.3868-6.9883.5469-13.9922.4336-20.9922-.1133-7.0274-.6718-14.043-1.3828-21.0313a188.7136 188.7136 0 0 0-3.4687-22.4609 129.6421 129.6421 0 0 0-5.4453-17.2656c-2.125-5.6211-4.2071-11.2891-6.8672-16.6875a9.7254 9.7254 0 0 0-5.9766-4.5938 10.0018 10.0018 0 0 0-12.3008 6.9844 10.4691 10.4691 0 0 0 1.0078 7.7031c.514 1.0476.9956 2.1054 1.4682 3.1687 1.1834 2.9641 2.3248 5.94 3.4537 8.929a143.2258 143.2258 0 0 1 4.6953 14.2812 131.4524 131.4524 0 0 1 2.8205 14.6087 258.3785 258.3785 0 0 1 1.8319 41.36c-.4806 14.0067-1.8852 27.9872-3.715 41.88-4.1427 29.8524-11.09 59.2162-19.57 88.12a807.1723 807.1723 0 0 1-30.1886 84.68c-8.451 19.9218-17.7873 39.46-27.745 58.6715-4.8906 9.4258-10.07 18.7071-15.8008 27.6524-2.7617 4.3125-5.6757 8.5312-8.5547 12.7656-2.5382 3.7333-5.1306 7.4286-7.8545 11.028a92.6052 92.6052 0 0 1-14.1844 14.7505 72.1186 72.1186 0 0 1-12.67 7.7955 30.4682 30.4682 0 0 1-4.3818 1.2961c-.3569.0186-.7132.0274-1.0708.026q-.09-.0249-.18-.0512c-.5789-.31-1.14-.6477-1.69-1.0122-.5223-.4635-1.0213-.9474-1.5-1.4579q-.163-.2628-.3142-.5324a22.8425 22.8425 0 0 1-.5645-2.3462c-.1834-1.9544-.27-3.9167-.3821-5.879-.1836-3.1953-.4453-6.375-.5274-9.5742-.1718-6.6914.1446-13.3906.5391-20.07.7731-13.0487 2.1033-26.0529 3.8008-39.0108 4.5047-33.1084 10.9591-65.9488 18.4492-98.5009 1.4805-6.4375 2.918-12.8868 4.7031-19.2461q2.127-7.57 4.2539-15.1446 11.5078-40.9687 23.0157-81.9336c.6289-2.2461 1.3515-4.457 2.0664-6.68q4.7694-14.8184 9.8007-29.5507c6.4508-18.8041 13.3947-37.4356 21.0827-55.7677 6.8277-16.1216 13.9443-32.1289 22.1087-47.623 4.1016-7.7773 8.5821-15.3359 13.1055-22.8711a226.9375 226.9375 0 0 1 13.0173-19.7758 102.7373 102.7373 0 0 1 15.759-15.91 38.7833 38.7833 0 0 1 5.1169-3.2318c.731 1.3605 1.34 2.8 1.974 4.1954 1.0234 2.2422 3.6914 3.9648 5.9766 4.5976a10.0016 10.0016 0 0 0 12.3007-6.9843c.1211-.8867.2383-1.7735.3594-2.66a9.9574 9.9574 0 0 0-1.3672-5.0469c-.7265-1.6015-1.457-3.2148-2.2734-4.7734a18.3867 18.3867 0 0 0-4.2266-4.9687 19.5782 19.5782 0 0 0-7.07-4.25 13.244 13.244 0 0 0-3.93-.5722 31.5013 31.5013 0 0 0-4.6946.4706zm-6.4609 207.7226c-.0324.24-.065.4784-.0977.7179q.0486-.3592.0977-.7179zM319.189 744.9734q-.0468.3485-.0944.697c.0314-.2334.0628-.4638.0944-.697z"/>
    <path d="M471.1852 277.7504a10.0781 10.0781 0 0 0-4.5937 5.9766 9.7235 9.7235 0 0 0 1.0078 7.707c1.6132 2.293 2.9922 4.7578 4.4336 7.16 1.375 2.2968 2.707 4.6171 4.0586 6.9257 2.4531 4.1875 4.8671 8.4024 7.2773 12.6133q2.7363 4.7929 5.48 9.582c1.1445 2.0079 2.3945 3.9883 3.4531 6.043q4.33 8.4083 8.668 16.8125c.664 1.2969 1.3945 2.5742 1.9726 3.91q1.77 4.0956 3.5391 8.1875 3.35 7.75 6.7 15.5054c3.3346 8.3953 6.6187 16.8107 9.6324 25.3267 3.1211 8.8242 5.82 17.789 8.2969 26.8125a433.9442 433.9442 0 0 1 11.3186 55.1606 258.8181 258.8181 0 0 1 1.9939 27.0933 194.1891 194.1891 0 0 1-1.1691 27.5548c-.64 4.3763-1.4784 8.7248-2.3739 13.0545a80.4407 80.4407 0 0 1-3.453 12.2786 35.2627 35.2627 0 0 1-2.9282 5.1972 30.0746 30.0746 0 0 1-2.811 2.8112q-.25.1693-.5036.3313-.3008-.1992-.5974-.4077a45.98 45.98 0 0 1-6.2-6.1788 108.2207 108.2207 0 0 1-11.7391-21.1393c-7.6458-18.6211-12.367-38.2241-16.7323-57.83-4.4673-20.0609-7.9069-40.3421-10.8011-60.6889q-1.6852-16.7046-3.363-33.4087c-1.3242-13.125-2.82-26.23-3.6367-39.3946-.2227-3.6445-.4336-7.2852-.668-10.93a10.4461 10.4461 0 0 0-2.93-7.07 10.001 10.001 0 0 0-14.1445 0 9.7372 9.7372 0 0 0-2.9258 7.07c.5508 8.5234.9531 17.0547 1.8086 25.5508q.9786 9.7032 1.9531 19.4063 1.9512 19.3359 3.8946 38.6719c.5351 5.3125 1.4609 10.6133 2.2656 15.8945q1.8457 12.1407 4.0352 24.2266 4.3242 23.8652 10.2734 47.4023a253.1452 253.1452 0 0 0 15.8281 45.9258 103.8394 103.8394 0 0 0 12.6094 20.3086 42.789 42.789 0 0 0 7.0078 6.8828c3.91 3.1289 8.2383 6.1719 13.4727 6.2695a20.0005 20.0005 0 0 0 11.2461-3.6406 40.6944 40.6944 0 0 0 4.9765-3.9883 41.7059 41.7059 0 0 0 4.4453-5.2539 40.4352 40.4352 0 0 0 5.0821-9.7617 71.6923 71.6923 0 0 0 3.1054-10.0234 193.1628 193.1628 0 0 0 3.9961-23.1719 190.5188 190.5188 0 0 0 1.0117-24.0274c-.0976-8.1171-.5664-16.2148-1.4531-24.2851-.9648-8.7266-2.32-17.4141-3.8594-26.0586a452.8562 452.8562 0 0 0-11.1484-47.6133q-3.3808-11.5546-7.5156-22.8633c-2.9141-8.0078-5.91-16.0468-9.2891-23.8711q-3.5273-8.1738-7.0625-16.3477c-1.7461-4.0351-3.3828-8.1054-5.3984-12.0117q-4.5352-8.7949-9.0664-17.59c-1.836-3.5586-3.9844-6.9883-5.9727-10.4649q-2.6777-4.6816-5.3711-9.3633c-2.2031-3.8164-4.3984-7.6367-6.625-11.4375-2.2109-3.7695-4.3164-7.664-6.8281-11.2422a10.6078 10.6078 0 0 0-5.9766-4.5976 9.9565 9.9565 0 0 0-2.6417-.3551 10.0606 10.0606 0 0 0-5.0653 1.3629z"/>
    <path d="M561.8454 72.2142a164.1075 164.1075 0 0 0-24.5938 3.9024c-30.9414 7.1835-59.1055 23.621-82.7383 44.5625a214.2341 214.2341 0 0 0-15.4179 15.1875c-5.4649 5.93-10.4844 12.23-15.3633 18.6406a198.364 198.364 0 0 0-12.32 18.1328 157.0835 157.0835 0 0 0-10.6641 21.8281 128.3469 128.3469 0 0 0-6.582 21.1914 87.6176 87.6176 0 0 0-2.0938 24.27 86.475 86.475 0 0 0 4.6914 23.0664 56.9559 56.9559 0 0 0 5.3516 10.8125c.9141 1.4765 1.8789 2.9257 2.8359 4.3789 1.4063 2.1367 3.043 4.1054 4.625 6.1172 1.5391 1.957 4.6953 2.9257 7.07 2.9257a9.9956 9.9956 0 0 0 10-10c-.1211-.8828-.2382-1.7695-.3593-2.6562a9.9864 9.9864 0 0 0-2.57-4.4141q-.3348-.4239-.6713-.8463c-1.3007-1.81-2.4779-3.7205-3.6608-5.599a56.7145 56.7145 0 0 1-3.312-5.988 72.1573 72.1573 0 0 1-3.6916-14.6659 73.4206 73.4206 0 0 1 .0387-16.3369 123.7387 123.7387 0 0 1 8.0777-28.0645c5.5-12.6025 12.9566-24.1693 21.2865-35.0786a219.5608 219.5608 0 0 1 36.9041-37.1351 189.9263 189.9263 0 0 1 39.2368-23.1479 165.1386 165.1386 0 0 1 38.5152-10.5221 113.82 113.82 0 0 1 12.8509-.8813 92.2689 92.2689 0 0 1 12.1092.8213 47.8547 47.8547 0 0 1 8.9643 2.0953 21.52 21.52 0 0 1 2.0982 1.1917 29.0662 29.0662 0 0 1 2.7106 2.8047 39.4067 39.4067 0 0 1 3.4324 5.9146 31.5211 31.5211 0 0 1 1.3657 4.7506 36.1286 36.1286 0 0 1-.09 6.1017c-1.1839 6.9989-3.7174 13.6732-6.4424 20.21a166.5646 166.5646 0 0 1-7.8157 16.2544c-3.3906 6.0313-7.23 11.8047-11.1445 17.5039-7.7428 11.2715-15.6023 22.4606-23.9375 33.3025-4.5161 5.8034-9.1214 11.54-13.75 17.2561-1.84 2.2657-3.66 4.5391-5.5625 6.7539l-13.09 15.2344c-6.625 7.707-13.1718 15.4883-19.98 23.0352q-11.707 12.9726-23.41 25.9414c-3.7461 4.1484-7.418 8.3867-11.2656 12.4414q-6.1875 6.5155-12.375 13.0273c-4.668 4.9024-9.3555 9.7969-13.9219 14.8008a10.313 10.313 0 0 0-2.93 7.0742 10.0394 10.0394 0 0 0 2.93 7.07c3.7227 3.7188 10.4688 4.0274 14.1445 0 7.6953-8.4414 15.668-16.6328 23.5313-24.9218 6.7773-7.1407 13.293-14.5313 19.8867-21.84q7.3534-8.1446 14.6992-16.289c2.5-2.7735 5.0508-5.504 7.4844-8.336q13.3359-15.5214 26.6719-31.039c5.59-6.504 10.93-13.2188 16.2617-19.9336 5.2617-6.625 10.4336-13.32 15.4453-20.1368 4.5664-6.207 8.918-12.57 13.3359-18.8828 4.32-6.1718 8.57-12.3984 12.4414-18.8633a159.4152 159.4152 0 0 0 9.7618-19.6953c5.9531-13.9726 12.3867-29.6953 7.4648-44.98a46.9756 46.9756 0 0 0-4.7461-10.1914 38.8335 38.8335 0 0 0-7.4062-8.9141 30.8518 30.8518 0 0 0-4.9219-3.5352 39.06 39.06 0 0 0-5.7578-2.48 47.2451 47.2451 0 0 0-9.918-2.18c-3.8711-.5313-7.7539-1.0274-11.6562-1.2578-1.3909-.0825-2.784-.1191-4.1768-.1191-2.6324 0-5.2648.1307-7.8857.33zm-10.2539 129.2774q-.2635.34-.5271.6792.2631-.34.5271-.6792z"/>
    <path d="M358.0595 156.8777a70.7471 70.7471 0 0 0-21.7266 8.25 127.64 127.64 0 0 0-19.375 13.7617 120.44 120.44 0 0 0-15.2773 15.957c-7.3711 8.9024-14.7149 18.0742-20.1328 28.3281a106.8407 106.8407 0 0 0-6.879 17.0118 168.1319 168.1319 0 0 0-4.2695 17.4921c-2.0195 9.6055-4.3789 19.125-5.5508 28.8868-.2968 2.4765 1.2461 5.3867 2.93 7.07a9.9963 9.9963 0 0 0 14.1406 0c.5235-.6758 1.043-1.3516 1.5664-2.0235a9.964 9.964 0 0 0 1.3633-5.0468l.0548-.4543c.7632-4.9769 1.9051-9.9112 2.9765-14.8231.8711-4.0078 1.7578-8.0117 2.5781-12.0273.8281-4.0391 1.7188-8.0469 2.9375-11.9883 1.0342-3.3544 2.1751-6.673 3.4794-9.93a106.4 106.4 0 0 1 12.7658-20.6438c3.6645-4.7022 7.4224-9.34 11.3993-13.7852a105.8936 105.8936 0 0 1 13.1482-12.3686 97.9931 97.9931 0 0 1 18.3564-11.2409 60.1441 60.1441 0 0 1 12.0736-3.3473 40.0215 40.0215 0 0 1 6.908-.1228 23.5509 23.5509 0 0 1 3.0066.792 47.5474 47.5474 0 0 1 7.45 4.7426 104.71 104.71 0 0 1 16.6835 16.3583c6.3753 8.5739 11.0878 18.16 15.2847 27.9552 6.0991 14.754 10.4325 30.0963 14.3041 45.5675a452.2263 452.2263 0 0 1 9.2438 48.1172c2.451 18.89 3.8283 37.8985 4.9085 56.91a10.373 10.373 0 0 0 2.9258 7.0742 10.0379 10.0379 0 0 0 7.0742 2.9258c5.2149 0 10.3086-4.5508 10-10-.9023-15.8477-2-31.7031-3.7656-47.48q-2.7949-24.9726-8.0313-49.57c-1.6757-7.875-3.6367-15.68-5.7148-23.4609-2.0352-7.6172-4.2266-15.1914-6.7812-22.6524-2.6485-7.7461-5.8321-15.3164-9.1993-22.7734a130.5562 130.5562 0 0 0-10.6445-19.4648 105.0308 105.0308 0 0 0-15.4844-18.0469c-2.9765-2.7656-6.1836-5.2461-9.3945-7.7266a51.0846 51.0846 0 0 0-9.4375-6.0781 33.7506 33.7506 0 0 0-6.2656-2.3242 41.61 41.61 0 0 0-6.6992-.9141c-.7765-.0606-1.5568-.0881-2.3388-.0881a61.0239 61.0239 0 0 0-10.5909 1.1819z"/>
    <path d="M388.2698 310.6534a30.7723 30.7723 0 0 0-5.5469 1.5468c-7.32 2.668-13.8242 6.8438-19.9609 11.5782-6.2813 4.8437-12.3985 9.93-18.3711 15.1484-11.59 10.1289-22.0156 21.5078-32.7422 32.5234-2.7734 2.8438-5.4727 5.7618-8.1914 8.6563q-15.4278 16.4063-30.8555 32.8047c-4.9336 5.25-9.9765 10.3789-15.0351 15.5117q-15.9083 16.1427-31.8164 32.2891c-1.7578 1.7891-3.4727 3.6367-5.3047 5.3516q-5.7657 5.4023-11.5274 10.8086-14.2089 13.3184-28.4179 26.6406c-2.9336 2.75-6.0118 5.3594-9.0157 8.0351q-8.5077 7.5762-17.0156 15.1485-4.1367 3.68-8.2422 7.3867c-4.3711 3.93-8.8593 7.7617-13.125 11.8086q-3.5683 3.3808-7.1328 6.7656a88.5853 88.5853 0 0 0-9.1914 9.4492 34.5533 34.5533 0 0 0-3.8437 5.5313 21.576 21.576 0 0 0-2.2383 7.9453c-.5235 5.4258 3.0234 10.1445 7.6523 12.5625a28.3285 28.3285 0 0 0 9.3906 2.8516 66.2162 66.2162 0 0 0 6.8008.66 51.1247 51.1247 0 0 0 6.3282-.2617 124.7718 124.7718 0 0 0 20.0312-3.8047c5.9961-1.5547 11.9531-3.2031 17.8164-5.2148 12.3359-4.2383 24.2383-9.6758 36.2422-14.7578q-.5076.2137-1.0151.4282c11.3435-4.829 22.5153-10.0711 33.7417-15.1548q12.8788-5.8242 25.75-11.66 33.7264-15.3573 67.4882-30.6484 29.0157-13.1426 58.0664-26.2227 15.6211-7.0546 31.2422-14.1015c2.2422-1.0078 3.9688-3.6953 4.5977-5.9727a10.0164 10.0164 0 0 0-6.9844-12.3047c-.8867-.1171-1.7734-.2382-2.66-.3554a9.9187 9.9187 0 0 0-5.0469 1.3672q-30.0234 13.5234-60.0235 27.09-31.0019 13.998-61.98 28.0352-29.584 13.4823-59.1953 26.8945-15.6711 7.0918-31.342 14.1836c-5.3452 2.2544-10.67 4.5564-16.0119 6.8191-8.0078 3.354-16.0862 6.5377-24.3883 9.0989-4.1328 1.2773-8.3321 2.34-12.52 3.4257-4.1723 1.0827-8.3712 2.0458-12.627 2.7193a57.3339 57.3339 0 0 1-7.0053.3877c1.6493-1.6554 3.3726-3.2429 5.0659-4.8492q3.5683-3.3808 7.1329-6.7656c4.2656-4.0469 8.7539-7.8789 13.125-11.8086 8.3867-7.5468 16.832-15.0312 25.2617-22.5351 3.0039-2.6719 6.082-5.2852 9.0156-8.0352q5.373-5.0391 10.7461-10.0742 14.5958-13.6875 29.1953-27.3711c1.832-1.7187 3.5469-3.5664 5.3086-5.3516q7.5292-7.6464 15.0664-15.2929 13.16-13.3595 26.32-26.7149c1.8633-1.8906 3.6445-3.8633 5.4649-5.7929q7.5468-8.0274 15.09-16.0508c7.9727-8.4727 15.8242-17.086 23.9531-25.4141 7.961-8.1523 15.7461-16.4805 23.9453-24.4024q5.959-5.76 12.2891-11.1133c3.967-3.3429 7.9239-6.7029 11.9946-9.9143a77.0888 77.0888 0 0 1 13.8119-8.58 34.5435 34.5435 0 0 1 5.5192-1.5849c.7742-.0573 1.5452-.08 2.32-.06a37.4784 37.4784 0 0 1 3.8236 2.277 32.5956 32.5956 0 0 1 3.1163 3.5338c.9454 1.18 1.8907 2.3555 2.82 3.543 1.5351 1.9609 4.6992 2.93 7.07 2.93a10.0026 10.0026 0 0 0 10-10c-.1172-.8868-.2383-1.7735-.3555-2.66a9.9931 9.9931 0 0 0-2.5742-4.4141c-1.0781-1.3789-2.1758-2.7382-3.27-4.1054a34.1342 34.1342 0 0 0-2.375-2.77 28.2726 28.2726 0 0 0-3.3046-2.6093c-.91-.6485-1.84-1.2422-2.8008-1.8047a33.0587 33.0587 0 0 0-6.2071-3.0274 22.3066 22.3066 0 0 0-6.6054-.9218c-.0955-.0017-.1916-.0025-.2873-.0025a40.8979 40.8979 0 0 0-6.451.7486zM130.6706 576.9105l.0054.04-.0056-.0392v-.0006z"/>
    <path d="M751.9982.6433c-1.6914.2617-3.3594.668-5.0352 1.0156-1.8164.375-3.6289.7266-5.4375 1.1484-4.0039.9336-7.9453 2.1446-11.8554 3.4258-8.0391 2.6289-15.9493 5.6485-23.7305 8.9727-14.4375 6.168-27.9609 14.1719-40.9728 22.918-26.34 17.707-50.5469 38.6328-73.0156 61.0039a636.3 636.3 0 0 0-62.8047 73.2031c-9.3125 12.6133-18.1758 25.5625-26.3672 38.9336a425.5708 425.5708 0 0 0-22.4648 41.2695c-4.1172 8.7695-7.7657 17.7734-11.1211 26.8633a154.1956 154.1956 0 0 0-7.5313 26.6914 131.9811 131.9811 0 0 0-1.707 14.125 59.0118 59.0118 0 0 0 .9766 14.7578 29.5214 29.5214 0 0 0 6.6406 13.2734 22.73 22.73 0 0 0 5.3555 4.6641c.832.5313 1.746.9453 2.6171 1.4063.9571.5078 1.8868 1.07 2.8321 1.5976a10.0015 10.0015 0 1 0 10.0937-17.2695c-1.16-.6485-2.3125-1.32-3.4883-1.9453-.6385-.3376-1.2663-.67-1.8767-1.0348-.2508-.256-.4939-.5186-.7319-.7871a23.2983 23.2983 0 0 1-1.4072-2.3509 28.104 28.104 0 0 1-.9016-3.7486 69.546 69.546 0 0 1 .4845-14.7941c2.1986-14.8182 7.4785-29.056 13.2238-42.84 7.64-17.8264 17.1007-34.8818 27.26-51.3862a565.7279 565.7279 0 0 1 33.3122-47.8727 623.8358 623.8358 0 0 1 47.7738-54.6117 539.09 539.09 0 0 1 53.3444-47.77c9.1269-6.9845 18.53-13.6021 28.2416-19.7573a228.371 228.371 0 0 1 31.5526-16.9343c6.7729-2.8012 13.6684-5.3091 20.6349-7.5891 3.6094-1.18 7.2578-2.2305 10.9492-3.1289 1.8008-.4375 3.6211-.793 5.4375-1.1484 1.534-.2989 3.0514-.6427 4.5838-.9242.5987-.0433 1.1941-.0626 1.7922-.05.3678.1.73.2105 1.0891.3321a24.3241 24.3241 0 0 1 2.2731 1.322q.4694.4234.9056.8786c.2109.354.4084.7138.5954 1.08a30.8152 30.8152 0 0 1 1.1858 4.6779 51.7065 51.7065 0 0 1-.0744 10.0561 68.86 68.86 0 0 1-4.192 14.3045c-1.9337 4.3935-4.1224 8.6628-6.3968 12.8889-2.5977 4.82-5.2383 9.625-8.0938 14.2968a293.9489 293.9489 0 0 1-17.9868 25.533c-9.3672 12.0913-18.9266 24.0033-28.97 35.542-5.2578 6.039-10.5977 12.0078-15.9336 17.9765-2.7344 3.0586-5.4336 6.1563-8.207 9.18q-13.0783 14.2383-26.1447 28.4805-23.0449 25.1075-46.25 50.0664c-6.1484 6.625-12.2852 13.2461-18.32 19.9766q-7.5352 8.3964-15.0664 16.8007c-2.4453 2.7266-4.7735 5.5313-7.1172 8.3477q-6.68 8.0332-13.3594 16.0625c-3.0625 3.68-5.9726 7.4961-8.9492 11.2461q-9.9785 12.5742-19.9336 25.164c-4.2812 5.4336-8.5781 10.8594-12.7852 16.3516-.3359.7969-.6718 1.59-1.0078 2.3867a10.0021 10.0021 0 0 0 12.3008 12.3008l2.3906-1.0078a10.0465 10.0465 0 0 0 3.586-3.5859q.2658-.3462.5305-.692 10.0711-12.8754 20.2507-25.6713c6.1328-7.75 12.1563-15.6172 18.48-23.2188 6.9141-8.3086 13.6758-16.7617 20.8945-24.8086 7.1485-7.9726 14.1914-16.0547 21.4766-23.9023 14.5781-15.7109 29.2109-31.3789 43.7031-47.168 22.4258-24.4258 45.0861-48.66 66.7462-73.7695 10.625-12.32 20.6758-25.125 30.5547-38.0469 4.6758-6.1211 9.2031-12.3515 13.43-18.789 4.1875-6.379 7.8711-13.0547 11.4844-19.7657a141.44 141.44 0 0 0 10.0312-22.43 62.0945 62.0945 0 0 0 3.0821-22.1914 46.9584 46.9584 0 0 0-1.7578-11.0625 26.6181 26.6181 0 0 0-6.379-11.1367 29.9719 29.9719 0 0 0-5.0468-3.9219 34.9655 34.9655 0 0 0-5.82-2.7617A18.0069 18.0069 0 0 0 758.7952 0a44.9318 44.9318 0 0 0-6.7963.6433zm-24.2717 105.0008l-.4236.55q.2112-.2751.4236-.55z"/>
    <path d="M309.7741 36.8354c-.8321.1172-1.6563.3086-2.4883.43a10.0214 10.0214 0 0 0-4.4141 2.57 9.9044 9.9044 0 0 0-2.93 7.0742c.1211 3.7422-.0625 7.4883.211 11.2265a67.1209 67.1209 0 0 0 2.6093 13.3868c2.09 7.3945 5.0625 14.5156 7.77 21.6953 1.8242 4.84 3.7773 9.625 5.6953 14.43q4.3829 10.9452 8.7617 21.8984c1.4375 3.59 2.8086 7.2188 4.4219 10.7344q8.3554 18.1933 16.707 36.3867c1.3789 3 2.9258 5.9141 4.4219 8.8555q5.25 10.3066 10.5 20.6093 4.2422 8.3262 8.8359 16.4571a167.5285 167.5285 0 0 0 23.41 31.7265c4.6289 4.9571 9.4062 9.7852 14.1133 14.668a92.7813 92.7813 0 0 0 12.6445 11.5313 9.6653 9.6653 0 0 0 7.7031 1.0078 10.0018 10.0018 0 0 0 6.9844-12.3008c-.3359-.7969-.6719-1.59-1.0078-2.3867a10.0178 10.0178 0 0 0-3.4768-3.5241c-3.8611-3.3158-7.3729-7.086-10.8982-10.7455-2.4883-2.582-4.9649-5.1718-7.461-7.7461a211.5222 211.5222 0 0 1-14.1639-16.0608 162.3614 162.3614 0 0 1-11.9571-18.72c-1.9415-3.4805-3.875-6.9727-5.6836-10.5234q-4.7931-9.3985-9.5782-18.7969-2.35-4.6113-4.6953-9.2149c-.5429-1.07-1.1328-2.1289-1.6328-3.2187q-3.328-7.2363-6.6484-14.4805-5.5147-12.0081-11.03-24.0125-5.4989-13.7327-10.9856-27.4647-2.3319-5.836-4.6679-11.6719c-1.8477-4.6172-3.5586-9.3125-5.293-13.9805a114.9326 114.9326 0 0 1-4.9912-16.3769c2.0316 1.0286 4.0529 2.0753 6.0381 3.1894a130.3526 130.3526 0 0 1 13.88 8.8148 144.31 144.31 0 0 1 23.4489 23.7158 234.3941 234.3941 0 0 1 20.5846 32.9968q9.709 18.5448 17.8321 37.8515l-1.0078-2.3906c2.0507 4.8672 4.2226 9.7383 5.98 14.7187q1.02 2.9 2.0469 5.7969 3.8379 10.8692 7.6758 21.7422 2.9766 8.4434 5.9609 16.8867c1.5117 4.2774 2.7774 8.6524 4.1094 12.9883q3.5859 11.672 6.8008 23.4531c5.0553 18.5791 9.0832 37.4147 12.2922 56.3974q1.47 11.2474 2.9461 22.4972.6563 4.9921 1.3086 9.9843c.5546 4.2422.875 8.5352 1.207 12.7969.2266 2.9219.3984 5.8477.4766 8.7774.0742 2.8242-.0625 5.664-.1211 8.4882a10 10 0 0 0 20 0c.082-3.8086.1836-7.6093.0117-11.414-.1914-4.2305-.5586-8.4532-.961-12.668-.2812-2.93-.5976-5.8477-.9765-8.7617q-1.4473-11.01-2.8867-22.0195-.5683-4.3478-1.1407-8.6993c-.6445-4.9414-1.52-9.8437-2.4218-14.7461q-4.4532-24.1405-10.9649-47.832c-2.1484-7.8516-4.4609-15.6562-6.8594-23.4375-1.18-3.8164-2.3125-7.6562-3.6406-11.4258q-3.0937-8.7539-6.1836-17.5039l-7.582-21.48q-.9375-2.6661-1.8828-5.3321c-.5664-1.6054-1.25-3.18-1.8828-4.7578-1.7578-4.3672-3.5782-8.707-5.41-13.0391q-8.1562-19.26-17.8906-37.7929c-3.1719-6.0586-6.5352-12.0156-10.1758-17.8008a222.9482 222.9482 0 0 0-13.207-18.5547 138.01 138.01 0 0 0-30.2376-28.7385 147.91 147.91 0 0 0-17.4024-10.1406c-1.3125-.6641-2.6328-1.3047-3.9335-1.9961-1.4415-.7656-2.793-1.6719-4.2618-2.3906a30.8181 30.8181 0 0 0-3.8554-1.5586 18.0672 18.0672 0 0 0-4.1993-.5977c-.1715-.015-.3438-.0219-.5166-.0219a27.1581 27.1581 0 0 0-3.7841.5415z"/>
  </g>
</svg>
